<svg width="1920" height="250" viewBox="0 0 1920 250" fill="none" xmlns="http://www.w3.org/2000/svg">
<rect width="1920" height="250" fill="#34547A"/>
<path d="M488.546 116.678H490.402V118.678H488.546V122H486.055V118.678H479.605L479.533 117.16L485.973 107.07H488.546V116.678ZM482.148 116.678H486.055V110.444L485.87 110.772L482.148 116.678ZM501.784 115.714C501.784 117.861 501.381 119.481 500.574 120.575C499.774 121.662 498.554 122.205 496.914 122.205C495.3 122.205 494.083 121.675 493.263 120.616C492.45 119.549 492.033 117.974 492.012 115.889V113.305C492.012 111.158 492.412 109.548 493.212 108.475C494.019 107.402 495.246 106.865 496.893 106.865C498.527 106.865 499.744 107.388 500.543 108.434C501.35 109.48 501.764 111.045 501.784 113.13V115.714ZM499.292 112.925C499.292 111.524 499.101 110.499 498.718 109.849C498.335 109.193 497.727 108.865 496.893 108.865C496.08 108.865 495.481 109.176 495.099 109.798C494.716 110.413 494.514 111.377 494.494 112.689V116.073C494.494 117.468 494.688 118.507 495.078 119.19C495.468 119.874 496.08 120.216 496.914 120.216C497.713 120.216 498.305 119.901 498.688 119.272C499.07 118.637 499.272 117.646 499.292 116.299V112.925ZM509.905 113.787H513.802V116.063H509.905V120.503H507.485V116.063H503.568V113.787H507.485V109.634H509.905V113.787Z" fill="white"/>
<path d="M481.547 140.172V150.25H480.094V138.547H481.422L481.547 140.172ZM487.242 142.703V142.867C487.242 143.482 487.169 144.052 487.023 144.578C486.878 145.099 486.664 145.552 486.383 145.938C486.107 146.323 485.766 146.622 485.359 146.836C484.953 147.049 484.487 147.156 483.961 147.156C483.424 147.156 482.951 147.068 482.539 146.891C482.128 146.714 481.779 146.456 481.492 146.117C481.206 145.779 480.977 145.372 480.805 144.898C480.638 144.424 480.523 143.891 480.461 143.297V142.422C480.523 141.797 480.641 141.237 480.812 140.742C480.984 140.247 481.211 139.826 481.492 139.477C481.779 139.122 482.125 138.854 482.531 138.672C482.938 138.484 483.406 138.391 483.938 138.391C484.469 138.391 484.94 138.495 485.352 138.703C485.763 138.906 486.109 139.198 486.391 139.578C486.672 139.958 486.883 140.414 487.023 140.945C487.169 141.471 487.242 142.057 487.242 142.703ZM485.789 142.867V142.703C485.789 142.281 485.745 141.885 485.656 141.516C485.568 141.141 485.43 140.812 485.242 140.531C485.06 140.245 484.826 140.021 484.539 139.859C484.253 139.693 483.911 139.609 483.516 139.609C483.151 139.609 482.833 139.672 482.562 139.797C482.297 139.922 482.07 140.091 481.883 140.305C481.695 140.513 481.542 140.753 481.422 141.023C481.307 141.289 481.221 141.565 481.164 141.852V143.875C481.268 144.24 481.414 144.583 481.602 144.906C481.789 145.224 482.039 145.482 482.352 145.68C482.664 145.872 483.057 145.969 483.531 145.969C483.922 145.969 484.258 145.888 484.539 145.727C484.826 145.56 485.06 145.333 485.242 145.047C485.43 144.76 485.568 144.432 485.656 144.062C485.745 143.688 485.789 143.289 485.789 142.867ZM490.531 139.875V147H489.086V138.547H490.492L490.531 139.875ZM493.172 138.5L493.164 139.844C493.044 139.818 492.93 139.802 492.82 139.797C492.716 139.786 492.596 139.781 492.461 139.781C492.128 139.781 491.833 139.833 491.578 139.938C491.323 140.042 491.107 140.188 490.93 140.375C490.753 140.562 490.612 140.786 490.508 141.047C490.409 141.302 490.344 141.583 490.312 141.891L489.906 142.125C489.906 141.615 489.956 141.135 490.055 140.688C490.159 140.24 490.318 139.844 490.531 139.5C490.745 139.151 491.016 138.88 491.344 138.688C491.677 138.49 492.073 138.391 492.531 138.391C492.635 138.391 492.755 138.404 492.891 138.43C493.026 138.451 493.12 138.474 493.172 138.5ZM493.969 142.867V142.688C493.969 142.078 494.057 141.513 494.234 140.992C494.411 140.466 494.667 140.01 495 139.625C495.333 139.234 495.737 138.932 496.211 138.719C496.685 138.5 497.216 138.391 497.805 138.391C498.398 138.391 498.932 138.5 499.406 138.719C499.885 138.932 500.292 139.234 500.625 139.625C500.964 140.01 501.221 140.466 501.398 140.992C501.576 141.513 501.664 142.078 501.664 142.688V142.867C501.664 143.477 501.576 144.042 501.398 144.562C501.221 145.083 500.964 145.539 500.625 145.93C500.292 146.315 499.888 146.617 499.414 146.836C498.945 147.049 498.414 147.156 497.82 147.156C497.227 147.156 496.693 147.049 496.219 146.836C495.745 146.617 495.339 146.315 495 145.93C494.667 145.539 494.411 145.083 494.234 144.562C494.057 144.042 493.969 143.477 493.969 142.867ZM495.414 142.688V142.867C495.414 143.289 495.464 143.688 495.562 144.062C495.661 144.432 495.81 144.76 496.008 145.047C496.211 145.333 496.464 145.56 496.766 145.727C497.068 145.888 497.419 145.969 497.82 145.969C498.216 145.969 498.562 145.888 498.859 145.727C499.161 145.56 499.411 145.333 499.609 145.047C499.807 144.76 499.956 144.432 500.055 144.062C500.159 143.688 500.211 143.289 500.211 142.867V142.688C500.211 142.271 500.159 141.878 500.055 141.508C499.956 141.133 499.805 140.802 499.602 140.516C499.404 140.224 499.154 139.995 498.852 139.828C498.555 139.661 498.206 139.578 497.805 139.578C497.409 139.578 497.06 139.661 496.758 139.828C496.461 139.995 496.211 140.224 496.008 140.516C495.81 140.802 495.661 141.133 495.562 141.508C495.464 141.878 495.414 142.271 495.414 142.688ZM503.516 138.547H504.969V148.008C504.969 148.523 504.885 148.961 504.719 149.32C504.557 149.68 504.312 149.951 503.984 150.133C503.661 150.32 503.253 150.414 502.758 150.414C502.628 150.414 502.477 150.401 502.305 150.375C502.128 150.349 501.979 150.318 501.859 150.281L501.867 149.117C501.966 149.138 502.078 149.154 502.203 149.164C502.328 149.18 502.438 149.188 502.531 149.188C502.745 149.188 502.924 149.148 503.07 149.07C503.216 148.992 503.326 148.867 503.398 148.695C503.477 148.523 503.516 148.294 503.516 148.008V138.547ZM503.367 136.305C503.367 136.07 503.44 135.872 503.586 135.711C503.732 135.549 503.943 135.469 504.219 135.469C504.5 135.469 504.714 135.549 504.859 135.711C505.005 135.872 505.078 136.07 505.078 136.305C505.078 136.529 505.005 136.721 504.859 136.883C504.714 137.039 504.5 137.117 504.219 137.117C503.943 137.117 503.732 137.039 503.586 136.883C503.44 136.721 503.367 136.529 503.367 136.305ZM510.812 147.156C510.224 147.156 509.69 147.057 509.211 146.859C508.737 146.656 508.328 146.372 507.984 146.008C507.646 145.643 507.385 145.211 507.203 144.711C507.021 144.211 506.93 143.664 506.93 143.07V142.742C506.93 142.055 507.031 141.443 507.234 140.906C507.438 140.365 507.714 139.906 508.062 139.531C508.411 139.156 508.807 138.872 509.25 138.68C509.693 138.487 510.151 138.391 510.625 138.391C511.229 138.391 511.75 138.495 512.188 138.703C512.63 138.911 512.992 139.203 513.273 139.578C513.555 139.948 513.763 140.385 513.898 140.891C514.034 141.391 514.102 141.938 514.102 142.531V143.18H507.789V142H512.656V141.891C512.635 141.516 512.557 141.151 512.422 140.797C512.292 140.443 512.083 140.151 511.797 139.922C511.51 139.693 511.12 139.578 510.625 139.578C510.297 139.578 509.995 139.648 509.719 139.789C509.443 139.924 509.206 140.128 509.008 140.398C508.81 140.669 508.656 141 508.547 141.391C508.438 141.781 508.383 142.232 508.383 142.742V143.07C508.383 143.471 508.438 143.849 508.547 144.203C508.661 144.552 508.826 144.859 509.039 145.125C509.258 145.391 509.521 145.599 509.828 145.75C510.141 145.901 510.495 145.977 510.891 145.977C511.401 145.977 511.833 145.872 512.188 145.664C512.542 145.456 512.852 145.177 513.117 144.828L513.992 145.523C513.81 145.799 513.578 146.062 513.297 146.312C513.016 146.562 512.669 146.766 512.258 146.922C511.852 147.078 511.37 147.156 510.812 147.156ZM519.172 145.969C519.516 145.969 519.833 145.898 520.125 145.758C520.417 145.617 520.656 145.424 520.844 145.18C521.031 144.93 521.138 144.646 521.164 144.328H522.539C522.513 144.828 522.344 145.294 522.031 145.727C521.724 146.154 521.32 146.5 520.82 146.766C520.32 147.026 519.771 147.156 519.172 147.156C518.536 147.156 517.982 147.044 517.508 146.82C517.039 146.596 516.648 146.289 516.336 145.898C516.029 145.508 515.797 145.06 515.641 144.555C515.49 144.044 515.414 143.505 515.414 142.938V142.609C515.414 142.042 515.49 141.505 515.641 141C515.797 140.49 516.029 140.039 516.336 139.648C516.648 139.258 517.039 138.951 517.508 138.727C517.982 138.503 518.536 138.391 519.172 138.391C519.833 138.391 520.411 138.526 520.906 138.797C521.401 139.062 521.789 139.427 522.07 139.891C522.357 140.349 522.513 140.87 522.539 141.453H521.164C521.138 141.104 521.039 140.789 520.867 140.508C520.701 140.227 520.471 140.003 520.18 139.836C519.893 139.664 519.557 139.578 519.172 139.578C518.729 139.578 518.357 139.667 518.055 139.844C517.758 140.016 517.521 140.25 517.344 140.547C517.172 140.839 517.047 141.164 516.969 141.523C516.896 141.878 516.859 142.24 516.859 142.609V142.938C516.859 143.307 516.896 143.672 516.969 144.031C517.042 144.391 517.164 144.716 517.336 145.008C517.513 145.299 517.75 145.534 518.047 145.711C518.349 145.883 518.724 145.969 519.172 145.969ZM527.703 138.547V139.656H523.133V138.547H527.703ZM524.68 136.492H526.125V144.906C526.125 145.193 526.169 145.409 526.258 145.555C526.346 145.701 526.461 145.797 526.602 145.844C526.742 145.891 526.893 145.914 527.055 145.914C527.174 145.914 527.299 145.904 527.43 145.883C527.565 145.857 527.667 145.836 527.734 145.82L527.742 147C527.628 147.036 527.477 147.07 527.289 147.102C527.107 147.138 526.885 147.156 526.625 147.156C526.271 147.156 525.945 147.086 525.648 146.945C525.352 146.805 525.115 146.57 524.938 146.242C524.766 145.909 524.68 145.461 524.68 144.898V136.492ZM534.32 144.758C534.32 144.549 534.273 144.357 534.18 144.18C534.091 143.997 533.906 143.833 533.625 143.688C533.349 143.536 532.932 143.406 532.375 143.297C531.906 143.198 531.482 143.081 531.102 142.945C530.727 142.81 530.406 142.646 530.141 142.453C529.88 142.26 529.68 142.034 529.539 141.773C529.398 141.513 529.328 141.208 529.328 140.859C529.328 140.526 529.401 140.211 529.547 139.914C529.698 139.617 529.909 139.354 530.18 139.125C530.456 138.896 530.786 138.716 531.172 138.586C531.557 138.456 531.987 138.391 532.461 138.391C533.138 138.391 533.716 138.51 534.195 138.75C534.674 138.99 535.042 139.31 535.297 139.711C535.552 140.107 535.68 140.547 535.68 141.031H534.234C534.234 140.797 534.164 140.57 534.023 140.352C533.888 140.128 533.688 139.943 533.422 139.797C533.161 139.651 532.841 139.578 532.461 139.578C532.06 139.578 531.734 139.641 531.484 139.766C531.24 139.885 531.06 140.039 530.945 140.227C530.836 140.414 530.781 140.612 530.781 140.82C530.781 140.977 530.807 141.117 530.859 141.242C530.917 141.362 531.016 141.474 531.156 141.578C531.297 141.677 531.495 141.771 531.75 141.859C532.005 141.948 532.331 142.036 532.727 142.125C533.419 142.281 533.99 142.469 534.438 142.688C534.885 142.906 535.219 143.174 535.438 143.492C535.656 143.81 535.766 144.195 535.766 144.648C535.766 145.018 535.688 145.357 535.531 145.664C535.38 145.971 535.159 146.237 534.867 146.461C534.581 146.68 534.237 146.852 533.836 146.977C533.44 147.096 532.995 147.156 532.5 147.156C531.755 147.156 531.125 147.023 530.609 146.758C530.094 146.492 529.703 146.148 529.438 145.727C529.172 145.305 529.039 144.859 529.039 144.391H530.492C530.513 144.786 530.628 145.102 530.836 145.336C531.044 145.565 531.299 145.729 531.602 145.828C531.904 145.922 532.203 145.969 532.5 145.969C532.896 145.969 533.227 145.917 533.492 145.812C533.763 145.708 533.969 145.565 534.109 145.383C534.25 145.201 534.32 144.992 534.32 144.758Z" fill="white"/>
<g clip-path="url(#clip0_1_9)">
<path d="M458.167 100H420.667C420.206 100 419.833 100.373 419.833 100.833V113.333H421.5V101.667H457.333V147.5C457.341 147.938 457.003 148.305 456.566 148.333C456.494 148.333 456.422 148.327 456.351 148.326C456.203 148.322 456.056 148.318 455.911 148.303C455.898 148.303 455.887 148.303 455.874 148.298C453.152 148.001 451.002 145.853 450.702 143.132C450.702 143.12 450.698 143.107 450.697 143.096C450.676 142.898 450.666 142.699 450.667 142.5V140.833C450.667 140.373 450.293 140 449.833 140H421.5V125H419.833V140H413.167C412.706 140 412.333 140.373 412.333 140.833V142.5C412.338 146.64 415.693 149.995 419.833 150H456.583C457.936 149.964 459.01 148.853 459 147.5V100.833C459 100.373 458.627 100 458.167 100ZM419.833 148.333C416.613 148.33 414.004 145.72 414 142.5V141.667H449V142.5C449.001 142.775 449.017 143.049 449.047 143.322C449.055 143.395 449.069 143.465 449.079 143.537C449.107 143.738 449.14 143.939 449.184 144.137C449.199 144.206 449.218 144.274 449.236 144.343C449.287 144.544 449.344 144.742 449.411 144.937C449.43 144.992 449.45 145.047 449.471 145.103C449.547 145.31 449.632 145.512 449.727 145.711C449.747 145.752 449.765 145.794 449.785 145.832C449.889 146.043 450.004 146.248 450.129 146.447C450.146 146.474 450.161 146.502 450.177 146.531C450.313 146.744 450.46 146.949 450.617 147.147L450.643 147.183C450.825 147.412 451.02 147.629 451.227 147.836C451.406 148.014 451.592 148.18 451.785 148.336L419.833 148.333Z" fill="white"/>
<path d="M436.5 123.333C436.721 123.333 436.933 123.245 437.089 123.089L440.422 119.756C440.748 119.43 440.748 118.903 440.422 118.577L437.089 115.244C436.933 115.088 436.721 115 436.5 115H413.167C410.866 115 409 116.866 409 119.167C409 121.468 410.866 123.333 413.167 123.333H436.5ZM436.285 116.797L438.655 119.167L436.285 121.537L435.692 119.167L436.285 116.797ZM415.667 116.667H434.6L434.183 118.333H417.333V120H434.183L434.6 121.667H415.667V116.667ZM410.667 119.167C410.667 117.786 411.786 116.667 413.167 116.667H414V121.667H413.167C411.786 121.667 410.667 120.547 410.667 119.167Z" fill="white"/>
<path d="M428.167 135.833H453.167C453.627 135.833 454 135.46 454 135V110C454 109.54 453.627 109.167 453.166 109.167C452.945 109.167 452.734 109.255 452.577 109.411L427.577 134.411C427.252 134.736 427.252 135.264 427.578 135.589C427.734 135.745 427.946 135.833 428.167 135.833ZM452.333 112.012V114.167H450.667V115.833H452.333V117.5H450.667V119.167H452.333V120.833H450.667V122.5H452.333V124.167H450.667V125.833H452.333V127.5H450.667V129.167H452.333V130.833H450.667V132.5H452.333V134.167H450.667V132.5H449V134.167H447.333V132.5H445.667V134.167H444V132.5H442.333V134.167H440.667V132.5H439V134.167H437.333V132.5H435.667V134.167H434V132.5H432.333V134.167H430.178L452.333 112.012Z" fill="white"/>
<path d="M440.237 130.833H448.167C448.627 130.833 449 130.46 449 130V122.071C449 121.611 448.627 121.238 448.166 121.238C447.945 121.238 447.734 121.325 447.577 121.482L439.648 129.411C439.323 129.736 439.323 130.264 439.649 130.589C439.805 130.745 440.017 130.833 440.237 130.833ZM447.333 124.083V129.167H442.25L447.333 124.083Z" fill="white"/>
<path d="M447.333 105H430.667V106.667H447.333V105Z" fill="white"/>
<path d="M449.833 108.333H428.167V110H449.833V108.333Z" fill="white"/>
<path d="M428.167 125.833H423.167V127.5H428.167V125.833Z" fill="white"/>
<path d="M426.5 129.167H423.167V130.833H426.5V129.167Z" fill="white"/>
</g>
<path d="M674.546 116.678H676.402V118.678H674.546V122H672.055V118.678H665.605L665.533 117.16L671.973 107.07H674.546V116.678ZM668.148 116.678H672.055V110.444L671.87 110.772L668.148 116.678ZM687.784 115.714C687.784 117.861 687.381 119.481 686.574 120.575C685.774 121.662 684.554 122.205 682.914 122.205C681.3 122.205 680.083 121.675 679.263 120.616C678.45 119.549 678.033 117.974 678.012 115.889V113.305C678.012 111.158 678.412 109.548 679.212 108.475C680.019 107.402 681.246 106.865 682.893 106.865C684.527 106.865 685.744 107.388 686.543 108.434C687.35 109.48 687.764 111.045 687.784 113.13V115.714ZM685.292 112.925C685.292 111.524 685.101 110.499 684.718 109.849C684.335 109.193 683.727 108.865 682.893 108.865C682.08 108.865 681.481 109.176 681.099 109.798C680.716 110.413 680.514 111.377 680.494 112.689V116.073C680.494 117.468 680.688 118.507 681.078 119.19C681.468 119.874 682.08 120.216 682.914 120.216C683.713 120.216 684.305 119.901 684.688 119.272C685.07 118.637 685.272 117.646 685.292 116.299V112.925ZM695.905 113.787H699.802V116.063H695.905V120.503H693.485V116.063H689.568V113.787H693.485V109.634H695.905V113.787Z" fill="white"/>
<path d="M667.547 140.172V150.25H666.094V138.547H667.422L667.547 140.172ZM673.242 142.703V142.867C673.242 143.482 673.169 144.052 673.023 144.578C672.878 145.099 672.664 145.552 672.383 145.938C672.107 146.323 671.766 146.622 671.359 146.836C670.953 147.049 670.487 147.156 669.961 147.156C669.424 147.156 668.951 147.068 668.539 146.891C668.128 146.714 667.779 146.456 667.492 146.117C667.206 145.779 666.977 145.372 666.805 144.898C666.638 144.424 666.523 143.891 666.461 143.297V142.422C666.523 141.797 666.641 141.237 666.812 140.742C666.984 140.247 667.211 139.826 667.492 139.477C667.779 139.122 668.125 138.854 668.531 138.672C668.938 138.484 669.406 138.391 669.938 138.391C670.469 138.391 670.94 138.495 671.352 138.703C671.763 138.906 672.109 139.198 672.391 139.578C672.672 139.958 672.883 140.414 673.023 140.945C673.169 141.471 673.242 142.057 673.242 142.703ZM671.789 142.867V142.703C671.789 142.281 671.745 141.885 671.656 141.516C671.568 141.141 671.43 140.812 671.242 140.531C671.06 140.245 670.826 140.021 670.539 139.859C670.253 139.693 669.911 139.609 669.516 139.609C669.151 139.609 668.833 139.672 668.562 139.797C668.297 139.922 668.07 140.091 667.883 140.305C667.695 140.513 667.542 140.753 667.422 141.023C667.307 141.289 667.221 141.565 667.164 141.852V143.875C667.268 144.24 667.414 144.583 667.602 144.906C667.789 145.224 668.039 145.482 668.352 145.68C668.664 145.872 669.057 145.969 669.531 145.969C669.922 145.969 670.258 145.888 670.539 145.727C670.826 145.56 671.06 145.333 671.242 145.047C671.43 144.76 671.568 144.432 671.656 144.062C671.745 143.688 671.789 143.289 671.789 142.867ZM676.531 139.875V147H675.086V138.547H676.492L676.531 139.875ZM679.172 138.5L679.164 139.844C679.044 139.818 678.93 139.802 678.82 139.797C678.716 139.786 678.596 139.781 678.461 139.781C678.128 139.781 677.833 139.833 677.578 139.938C677.323 140.042 677.107 140.188 676.93 140.375C676.753 140.562 676.612 140.786 676.508 141.047C676.409 141.302 676.344 141.583 676.312 141.891L675.906 142.125C675.906 141.615 675.956 141.135 676.055 140.688C676.159 140.24 676.318 139.844 676.531 139.5C676.745 139.151 677.016 138.88 677.344 138.688C677.677 138.49 678.073 138.391 678.531 138.391C678.635 138.391 678.755 138.404 678.891 138.43C679.026 138.451 679.12 138.474 679.172 138.5ZM679.969 142.867V142.688C679.969 142.078 680.057 141.513 680.234 140.992C680.411 140.466 680.667 140.01 681 139.625C681.333 139.234 681.737 138.932 682.211 138.719C682.685 138.5 683.216 138.391 683.805 138.391C684.398 138.391 684.932 138.5 685.406 138.719C685.885 138.932 686.292 139.234 686.625 139.625C686.964 140.01 687.221 140.466 687.398 140.992C687.576 141.513 687.664 142.078 687.664 142.688V142.867C687.664 143.477 687.576 144.042 687.398 144.562C687.221 145.083 686.964 145.539 686.625 145.93C686.292 146.315 685.888 146.617 685.414 146.836C684.945 147.049 684.414 147.156 683.82 147.156C683.227 147.156 682.693 147.049 682.219 146.836C681.745 146.617 681.339 146.315 681 145.93C680.667 145.539 680.411 145.083 680.234 144.562C680.057 144.042 679.969 143.477 679.969 142.867ZM681.414 142.688V142.867C681.414 143.289 681.464 143.688 681.562 144.062C681.661 144.432 681.81 144.76 682.008 145.047C682.211 145.333 682.464 145.56 682.766 145.727C683.068 145.888 683.419 145.969 683.82 145.969C684.216 145.969 684.562 145.888 684.859 145.727C685.161 145.56 685.411 145.333 685.609 145.047C685.807 144.76 685.956 144.432 686.055 144.062C686.159 143.688 686.211 143.289 686.211 142.867V142.688C686.211 142.271 686.159 141.878 686.055 141.508C685.956 141.133 685.805 140.802 685.602 140.516C685.404 140.224 685.154 139.995 684.852 139.828C684.555 139.661 684.206 139.578 683.805 139.578C683.409 139.578 683.06 139.661 682.758 139.828C682.461 139.995 682.211 140.224 682.008 140.516C681.81 140.802 681.661 141.133 681.562 141.508C681.464 141.878 681.414 142.271 681.414 142.688ZM689.516 138.547H690.969V148.008C690.969 148.523 690.885 148.961 690.719 149.32C690.557 149.68 690.312 149.951 689.984 150.133C689.661 150.32 689.253 150.414 688.758 150.414C688.628 150.414 688.477 150.401 688.305 150.375C688.128 150.349 687.979 150.318 687.859 150.281L687.867 149.117C687.966 149.138 688.078 149.154 688.203 149.164C688.328 149.18 688.438 149.188 688.531 149.188C688.745 149.188 688.924 149.148 689.07 149.07C689.216 148.992 689.326 148.867 689.398 148.695C689.477 148.523 689.516 148.294 689.516 148.008V138.547ZM689.367 136.305C689.367 136.07 689.44 135.872 689.586 135.711C689.732 135.549 689.943 135.469 690.219 135.469C690.5 135.469 690.714 135.549 690.859 135.711C691.005 135.872 691.078 136.07 691.078 136.305C691.078 136.529 691.005 136.721 690.859 136.883C690.714 137.039 690.5 137.117 690.219 137.117C689.943 137.117 689.732 137.039 689.586 136.883C689.44 136.721 689.367 136.529 689.367 136.305ZM696.812 147.156C696.224 147.156 695.69 147.057 695.211 146.859C694.737 146.656 694.328 146.372 693.984 146.008C693.646 145.643 693.385 145.211 693.203 144.711C693.021 144.211 692.93 143.664 692.93 143.07V142.742C692.93 142.055 693.031 141.443 693.234 140.906C693.438 140.365 693.714 139.906 694.062 139.531C694.411 139.156 694.807 138.872 695.25 138.68C695.693 138.487 696.151 138.391 696.625 138.391C697.229 138.391 697.75 138.495 698.188 138.703C698.63 138.911 698.992 139.203 699.273 139.578C699.555 139.948 699.763 140.385 699.898 140.891C700.034 141.391 700.102 141.938 700.102 142.531V143.18H693.789V142H698.656V141.891C698.635 141.516 698.557 141.151 698.422 140.797C698.292 140.443 698.083 140.151 697.797 139.922C697.51 139.693 697.12 139.578 696.625 139.578C696.297 139.578 695.995 139.648 695.719 139.789C695.443 139.924 695.206 140.128 695.008 140.398C694.81 140.669 694.656 141 694.547 141.391C694.438 141.781 694.383 142.232 694.383 142.742V143.07C694.383 143.471 694.438 143.849 694.547 144.203C694.661 144.552 694.826 144.859 695.039 145.125C695.258 145.391 695.521 145.599 695.828 145.75C696.141 145.901 696.495 145.977 696.891 145.977C697.401 145.977 697.833 145.872 698.188 145.664C698.542 145.456 698.852 145.177 699.117 144.828L699.992 145.523C699.81 145.799 699.578 146.062 699.297 146.312C699.016 146.562 698.669 146.766 698.258 146.922C697.852 147.078 697.37 147.156 696.812 147.156ZM705.172 145.969C705.516 145.969 705.833 145.898 706.125 145.758C706.417 145.617 706.656 145.424 706.844 145.18C707.031 144.93 707.138 144.646 707.164 144.328H708.539C708.513 144.828 708.344 145.294 708.031 145.727C707.724 146.154 707.32 146.5 706.82 146.766C706.32 147.026 705.771 147.156 705.172 147.156C704.536 147.156 703.982 147.044 703.508 146.82C703.039 146.596 702.648 146.289 702.336 145.898C702.029 145.508 701.797 145.06 701.641 144.555C701.49 144.044 701.414 143.505 701.414 142.938V142.609C701.414 142.042 701.49 141.505 701.641 141C701.797 140.49 702.029 140.039 702.336 139.648C702.648 139.258 703.039 138.951 703.508 138.727C703.982 138.503 704.536 138.391 705.172 138.391C705.833 138.391 706.411 138.526 706.906 138.797C707.401 139.062 707.789 139.427 708.07 139.891C708.357 140.349 708.513 140.87 708.539 141.453H707.164C707.138 141.104 707.039 140.789 706.867 140.508C706.701 140.227 706.471 140.003 706.18 139.836C705.893 139.664 705.557 139.578 705.172 139.578C704.729 139.578 704.357 139.667 704.055 139.844C703.758 140.016 703.521 140.25 703.344 140.547C703.172 140.839 703.047 141.164 702.969 141.523C702.896 141.878 702.859 142.24 702.859 142.609V142.938C702.859 143.307 702.896 143.672 702.969 144.031C703.042 144.391 703.164 144.716 703.336 145.008C703.513 145.299 703.75 145.534 704.047 145.711C704.349 145.883 704.724 145.969 705.172 145.969ZM713.703 138.547V139.656H709.133V138.547H713.703ZM710.68 136.492H712.125V144.906C712.125 145.193 712.169 145.409 712.258 145.555C712.346 145.701 712.461 145.797 712.602 145.844C712.742 145.891 712.893 145.914 713.055 145.914C713.174 145.914 713.299 145.904 713.43 145.883C713.565 145.857 713.667 145.836 713.734 145.82L713.742 147C713.628 147.036 713.477 147.07 713.289 147.102C713.107 147.138 712.885 147.156 712.625 147.156C712.271 147.156 711.945 147.086 711.648 146.945C711.352 146.805 711.115 146.57 710.938 146.242C710.766 145.909 710.68 145.461 710.68 144.898V136.492ZM720.32 144.758C720.32 144.549 720.273 144.357 720.18 144.18C720.091 143.997 719.906 143.833 719.625 143.688C719.349 143.536 718.932 143.406 718.375 143.297C717.906 143.198 717.482 143.081 717.102 142.945C716.727 142.81 716.406 142.646 716.141 142.453C715.88 142.26 715.68 142.034 715.539 141.773C715.398 141.513 715.328 141.208 715.328 140.859C715.328 140.526 715.401 140.211 715.547 139.914C715.698 139.617 715.909 139.354 716.18 139.125C716.456 138.896 716.786 138.716 717.172 138.586C717.557 138.456 717.987 138.391 718.461 138.391C719.138 138.391 719.716 138.51 720.195 138.75C720.674 138.99 721.042 139.31 721.297 139.711C721.552 140.107 721.68 140.547 721.68 141.031H720.234C720.234 140.797 720.164 140.57 720.023 140.352C719.888 140.128 719.688 139.943 719.422 139.797C719.161 139.651 718.841 139.578 718.461 139.578C718.06 139.578 717.734 139.641 717.484 139.766C717.24 139.885 717.06 140.039 716.945 140.227C716.836 140.414 716.781 140.612 716.781 140.82C716.781 140.977 716.807 141.117 716.859 141.242C716.917 141.362 717.016 141.474 717.156 141.578C717.297 141.677 717.495 141.771 717.75 141.859C718.005 141.948 718.331 142.036 718.727 142.125C719.419 142.281 719.99 142.469 720.438 142.688C720.885 142.906 721.219 143.174 721.438 143.492C721.656 143.81 721.766 144.195 721.766 144.648C721.766 145.018 721.688 145.357 721.531 145.664C721.38 145.971 721.159 146.237 720.867 146.461C720.581 146.68 720.237 146.852 719.836 146.977C719.44 147.096 718.995 147.156 718.5 147.156C717.755 147.156 717.125 147.023 716.609 146.758C716.094 146.492 715.703 146.148 715.438 145.727C715.172 145.305 715.039 144.859 715.039 144.391H716.492C716.513 144.786 716.628 145.102 716.836 145.336C717.044 145.565 717.299 145.729 717.602 145.828C717.904 145.922 718.203 145.969 718.5 145.969C718.896 145.969 719.227 145.917 719.492 145.812C719.763 145.708 719.969 145.565 720.109 145.383C720.25 145.201 720.32 144.992 720.32 144.758Z" fill="white"/>
<g clip-path="url(#clip1_1_9)">
<path d="M644.167 100H606.667C606.206 100 605.833 100.373 605.833 100.833V113.333H607.5V101.667H643.333V147.5C643.341 147.938 643.003 148.305 642.566 148.333C642.494 148.333 642.422 148.327 642.351 148.326C642.203 148.322 642.056 148.318 641.911 148.303C641.898 148.303 641.887 148.303 641.874 148.298C639.152 148.001 637.002 145.853 636.702 143.132C636.702 143.12 636.698 143.107 636.697 143.096C636.676 142.898 636.666 142.699 636.667 142.5V140.833C636.667 140.373 636.293 140 635.833 140H607.5V125H605.833V140H599.167C598.706 140 598.333 140.373 598.333 140.833V142.5C598.338 146.64 601.693 149.995 605.833 150H642.583C643.936 149.964 645.01 148.853 645 147.5V100.833C645 100.373 644.627 100 644.167 100ZM605.833 148.333C602.613 148.33 600.004 145.72 600 142.5V141.667H635V142.5C635.001 142.775 635.017 143.049 635.047 143.322C635.055 143.395 635.069 143.465 635.079 143.537C635.107 143.738 635.14 143.939 635.184 144.137C635.199 144.206 635.218 144.274 635.236 144.343C635.287 144.544 635.344 144.742 635.411 144.937C635.43 144.992 635.45 145.047 635.471 145.103C635.547 145.31 635.632 145.512 635.727 145.711C635.747 145.752 635.765 145.794 635.785 145.832C635.889 146.043 636.004 146.248 636.129 146.447C636.146 146.474 636.161 146.502 636.177 146.531C636.313 146.744 636.46 146.949 636.617 147.147L636.643 147.183C636.825 147.412 637.02 147.629 637.227 147.836C637.406 148.014 637.592 148.18 637.785 148.336L605.833 148.333Z" fill="white"/>
<path d="M622.5 123.333C622.721 123.333 622.933 123.245 623.089 123.089L626.422 119.756C626.748 119.43 626.748 118.903 626.422 118.577L623.089 115.244C622.933 115.088 622.721 115 622.5 115H599.167C596.866 115 595 116.866 595 119.167C595 121.468 596.866 123.333 599.167 123.333H622.5ZM622.285 116.797L624.655 119.167L622.285 121.537L621.692 119.167L622.285 116.797ZM601.667 116.667H620.6L620.183 118.333H603.333V120H620.183L620.6 121.667H601.667V116.667ZM596.667 119.167C596.667 117.786 597.786 116.667 599.167 116.667H600V121.667H599.167C597.786 121.667 596.667 120.547 596.667 119.167Z" fill="white"/>
<path d="M614.167 135.833H639.167C639.627 135.833 640 135.46 640 135V110C640 109.54 639.627 109.167 639.166 109.167C638.945 109.167 638.734 109.255 638.577 109.411L613.577 134.411C613.252 134.736 613.252 135.264 613.578 135.589C613.734 135.745 613.946 135.833 614.167 135.833ZM638.333 112.012V114.167H636.667V115.833H638.333V117.5H636.667V119.167H638.333V120.833H636.667V122.5H638.333V124.167H636.667V125.833H638.333V127.5H636.667V129.167H638.333V130.833H636.667V132.5H638.333V134.167H636.667V132.5H635V134.167H633.333V132.5H631.667V134.167H630V132.5H628.333V134.167H626.667V132.5H625V134.167H623.333V132.5H621.667V134.167H620V132.5H618.333V134.167H616.178L638.333 112.012Z" fill="white"/>
<path d="M626.237 130.833H634.167C634.627 130.833 635 130.46 635 130V122.071C635 121.611 634.627 121.238 634.166 121.238C633.945 121.238 633.734 121.325 633.577 121.482L625.648 129.411C625.323 129.736 625.323 130.264 625.648 130.589C625.805 130.745 626.016 130.833 626.237 130.833ZM633.333 124.083V129.167H628.25L633.333 124.083Z" fill="white"/>
<path d="M633.333 105H616.667V106.667H633.333V105Z" fill="white"/>
<path d="M635.833 108.333H614.167V110H635.833V108.333Z" fill="white"/>
<path d="M614.167 125.833H609.167V127.5H614.167V125.833Z" fill="white"/>
<path d="M612.5 129.167H609.167V130.833H612.5V129.167Z" fill="white"/>
</g>
<path d="M864.546 116.678H866.402V118.678H864.546V122H862.055V118.678H855.605L855.533 117.16L861.973 107.07H864.546V116.678ZM858.148 116.678H862.055V110.444L861.87 110.772L858.148 116.678ZM877.784 115.714C877.784 117.861 877.381 119.481 876.574 120.575C875.774 121.662 874.554 122.205 872.914 122.205C871.3 122.205 870.083 121.675 869.263 120.616C868.45 119.549 868.033 117.974 868.012 115.889V113.305C868.012 111.158 868.412 109.548 869.212 108.475C870.019 107.402 871.246 106.865 872.893 106.865C874.527 106.865 875.744 107.388 876.543 108.434C877.35 109.48 877.764 111.045 877.784 113.13V115.714ZM875.292 112.925C875.292 111.524 875.101 110.499 874.718 109.849C874.335 109.193 873.727 108.865 872.893 108.865C872.08 108.865 871.481 109.176 871.099 109.798C870.716 110.413 870.514 111.377 870.494 112.689V116.073C870.494 117.468 870.688 118.507 871.078 119.19C871.468 119.874 872.08 120.216 872.914 120.216C873.713 120.216 874.305 119.901 874.688 119.272C875.07 118.637 875.272 117.646 875.292 116.299V112.925ZM885.905 113.787H889.802V116.063H885.905V120.503H883.485V116.063H879.568V113.787H883.485V109.634H885.905V113.787Z" fill="white"/>
<path d="M857.547 140.172V150.25H856.094V138.547H857.422L857.547 140.172ZM863.242 142.703V142.867C863.242 143.482 863.169 144.052 863.023 144.578C862.878 145.099 862.664 145.552 862.383 145.938C862.107 146.323 861.766 146.622 861.359 146.836C860.953 147.049 860.487 147.156 859.961 147.156C859.424 147.156 858.951 147.068 858.539 146.891C858.128 146.714 857.779 146.456 857.492 146.117C857.206 145.779 856.977 145.372 856.805 144.898C856.638 144.424 856.523 143.891 856.461 143.297V142.422C856.523 141.797 856.641 141.237 856.812 140.742C856.984 140.247 857.211 139.826 857.492 139.477C857.779 139.122 858.125 138.854 858.531 138.672C858.938 138.484 859.406 138.391 859.938 138.391C860.469 138.391 860.94 138.495 861.352 138.703C861.763 138.906 862.109 139.198 862.391 139.578C862.672 139.958 862.883 140.414 863.023 140.945C863.169 141.471 863.242 142.057 863.242 142.703ZM861.789 142.867V142.703C861.789 142.281 861.745 141.885 861.656 141.516C861.568 141.141 861.43 140.812 861.242 140.531C861.06 140.245 860.826 140.021 860.539 139.859C860.253 139.693 859.911 139.609 859.516 139.609C859.151 139.609 858.833 139.672 858.562 139.797C858.297 139.922 858.07 140.091 857.883 140.305C857.695 140.513 857.542 140.753 857.422 141.023C857.307 141.289 857.221 141.565 857.164 141.852V143.875C857.268 144.24 857.414 144.583 857.602 144.906C857.789 145.224 858.039 145.482 858.352 145.68C858.664 145.872 859.057 145.969 859.531 145.969C859.922 145.969 860.258 145.888 860.539 145.727C860.826 145.56 861.06 145.333 861.242 145.047C861.43 144.76 861.568 144.432 861.656 144.062C861.745 143.688 861.789 143.289 861.789 142.867ZM866.531 139.875V147H865.086V138.547H866.492L866.531 139.875ZM869.172 138.5L869.164 139.844C869.044 139.818 868.93 139.802 868.82 139.797C868.716 139.786 868.596 139.781 868.461 139.781C868.128 139.781 867.833 139.833 867.578 139.938C867.323 140.042 867.107 140.188 866.93 140.375C866.753 140.562 866.612 140.786 866.508 141.047C866.409 141.302 866.344 141.583 866.312 141.891L865.906 142.125C865.906 141.615 865.956 141.135 866.055 140.688C866.159 140.24 866.318 139.844 866.531 139.5C866.745 139.151 867.016 138.88 867.344 138.688C867.677 138.49 868.073 138.391 868.531 138.391C868.635 138.391 868.755 138.404 868.891 138.43C869.026 138.451 869.12 138.474 869.172 138.5ZM869.969 142.867V142.688C869.969 142.078 870.057 141.513 870.234 140.992C870.411 140.466 870.667 140.01 871 139.625C871.333 139.234 871.737 138.932 872.211 138.719C872.685 138.5 873.216 138.391 873.805 138.391C874.398 138.391 874.932 138.5 875.406 138.719C875.885 138.932 876.292 139.234 876.625 139.625C876.964 140.01 877.221 140.466 877.398 140.992C877.576 141.513 877.664 142.078 877.664 142.688V142.867C877.664 143.477 877.576 144.042 877.398 144.562C877.221 145.083 876.964 145.539 876.625 145.93C876.292 146.315 875.888 146.617 875.414 146.836C874.945 147.049 874.414 147.156 873.82 147.156C873.227 147.156 872.693 147.049 872.219 146.836C871.745 146.617 871.339 146.315 871 145.93C870.667 145.539 870.411 145.083 870.234 144.562C870.057 144.042 869.969 143.477 869.969 142.867ZM871.414 142.688V142.867C871.414 143.289 871.464 143.688 871.562 144.062C871.661 144.432 871.81 144.76 872.008 145.047C872.211 145.333 872.464 145.56 872.766 145.727C873.068 145.888 873.419 145.969 873.82 145.969C874.216 145.969 874.562 145.888 874.859 145.727C875.161 145.56 875.411 145.333 875.609 145.047C875.807 144.76 875.956 144.432 876.055 144.062C876.159 143.688 876.211 143.289 876.211 142.867V142.688C876.211 142.271 876.159 141.878 876.055 141.508C875.956 141.133 875.805 140.802 875.602 140.516C875.404 140.224 875.154 139.995 874.852 139.828C874.555 139.661 874.206 139.578 873.805 139.578C873.409 139.578 873.06 139.661 872.758 139.828C872.461 139.995 872.211 140.224 872.008 140.516C871.81 140.802 871.661 141.133 871.562 141.508C871.464 141.878 871.414 142.271 871.414 142.688ZM879.516 138.547H880.969V148.008C880.969 148.523 880.885 148.961 880.719 149.32C880.557 149.68 880.312 149.951 879.984 150.133C879.661 150.32 879.253 150.414 878.758 150.414C878.628 150.414 878.477 150.401 878.305 150.375C878.128 150.349 877.979 150.318 877.859 150.281L877.867 149.117C877.966 149.138 878.078 149.154 878.203 149.164C878.328 149.18 878.438 149.188 878.531 149.188C878.745 149.188 878.924 149.148 879.07 149.07C879.216 148.992 879.326 148.867 879.398 148.695C879.477 148.523 879.516 148.294 879.516 148.008V138.547ZM879.367 136.305C879.367 136.07 879.44 135.872 879.586 135.711C879.732 135.549 879.943 135.469 880.219 135.469C880.5 135.469 880.714 135.549 880.859 135.711C881.005 135.872 881.078 136.07 881.078 136.305C881.078 136.529 881.005 136.721 880.859 136.883C880.714 137.039 880.5 137.117 880.219 137.117C879.943 137.117 879.732 137.039 879.586 136.883C879.44 136.721 879.367 136.529 879.367 136.305ZM886.812 147.156C886.224 147.156 885.69 147.057 885.211 146.859C884.737 146.656 884.328 146.372 883.984 146.008C883.646 145.643 883.385 145.211 883.203 144.711C883.021 144.211 882.93 143.664 882.93 143.07V142.742C882.93 142.055 883.031 141.443 883.234 140.906C883.438 140.365 883.714 139.906 884.062 139.531C884.411 139.156 884.807 138.872 885.25 138.68C885.693 138.487 886.151 138.391 886.625 138.391C887.229 138.391 887.75 138.495 888.188 138.703C888.63 138.911 888.992 139.203 889.273 139.578C889.555 139.948 889.763 140.385 889.898 140.891C890.034 141.391 890.102 141.938 890.102 142.531V143.18H883.789V142H888.656V141.891C888.635 141.516 888.557 141.151 888.422 140.797C888.292 140.443 888.083 140.151 887.797 139.922C887.51 139.693 887.12 139.578 886.625 139.578C886.297 139.578 885.995 139.648 885.719 139.789C885.443 139.924 885.206 140.128 885.008 140.398C884.81 140.669 884.656 141 884.547 141.391C884.438 141.781 884.383 142.232 884.383 142.742V143.07C884.383 143.471 884.438 143.849 884.547 144.203C884.661 144.552 884.826 144.859 885.039 145.125C885.258 145.391 885.521 145.599 885.828 145.75C886.141 145.901 886.495 145.977 886.891 145.977C887.401 145.977 887.833 145.872 888.188 145.664C888.542 145.456 888.852 145.177 889.117 144.828L889.992 145.523C889.81 145.799 889.578 146.062 889.297 146.312C889.016 146.562 888.669 146.766 888.258 146.922C887.852 147.078 887.37 147.156 886.812 147.156ZM895.172 145.969C895.516 145.969 895.833 145.898 896.125 145.758C896.417 145.617 896.656 145.424 896.844 145.18C897.031 144.93 897.138 144.646 897.164 144.328H898.539C898.513 144.828 898.344 145.294 898.031 145.727C897.724 146.154 897.32 146.5 896.82 146.766C896.32 147.026 895.771 147.156 895.172 147.156C894.536 147.156 893.982 147.044 893.508 146.82C893.039 146.596 892.648 146.289 892.336 145.898C892.029 145.508 891.797 145.06 891.641 144.555C891.49 144.044 891.414 143.505 891.414 142.938V142.609C891.414 142.042 891.49 141.505 891.641 141C891.797 140.49 892.029 140.039 892.336 139.648C892.648 139.258 893.039 138.951 893.508 138.727C893.982 138.503 894.536 138.391 895.172 138.391C895.833 138.391 896.411 138.526 896.906 138.797C897.401 139.062 897.789 139.427 898.07 139.891C898.357 140.349 898.513 140.87 898.539 141.453H897.164C897.138 141.104 897.039 140.789 896.867 140.508C896.701 140.227 896.471 140.003 896.18 139.836C895.893 139.664 895.557 139.578 895.172 139.578C894.729 139.578 894.357 139.667 894.055 139.844C893.758 140.016 893.521 140.25 893.344 140.547C893.172 140.839 893.047 141.164 892.969 141.523C892.896 141.878 892.859 142.24 892.859 142.609V142.938C892.859 143.307 892.896 143.672 892.969 144.031C893.042 144.391 893.164 144.716 893.336 145.008C893.513 145.299 893.75 145.534 894.047 145.711C894.349 145.883 894.724 145.969 895.172 145.969ZM903.703 138.547V139.656H899.133V138.547H903.703ZM900.68 136.492H902.125V144.906C902.125 145.193 902.169 145.409 902.258 145.555C902.346 145.701 902.461 145.797 902.602 145.844C902.742 145.891 902.893 145.914 903.055 145.914C903.174 145.914 903.299 145.904 903.43 145.883C903.565 145.857 903.667 145.836 903.734 145.82L903.742 147C903.628 147.036 903.477 147.07 903.289 147.102C903.107 147.138 902.885 147.156 902.625 147.156C902.271 147.156 901.945 147.086 901.648 146.945C901.352 146.805 901.115 146.57 900.938 146.242C900.766 145.909 900.68 145.461 900.68 144.898V136.492ZM910.32 144.758C910.32 144.549 910.273 144.357 910.18 144.18C910.091 143.997 909.906 143.833 909.625 143.688C909.349 143.536 908.932 143.406 908.375 143.297C907.906 143.198 907.482 143.081 907.102 142.945C906.727 142.81 906.406 142.646 906.141 142.453C905.88 142.26 905.68 142.034 905.539 141.773C905.398 141.513 905.328 141.208 905.328 140.859C905.328 140.526 905.401 140.211 905.547 139.914C905.698 139.617 905.909 139.354 906.18 139.125C906.456 138.896 906.786 138.716 907.172 138.586C907.557 138.456 907.987 138.391 908.461 138.391C909.138 138.391 909.716 138.51 910.195 138.75C910.674 138.99 911.042 139.31 911.297 139.711C911.552 140.107 911.68 140.547 911.68 141.031H910.234C910.234 140.797 910.164 140.57 910.023 140.352C909.888 140.128 909.688 139.943 909.422 139.797C909.161 139.651 908.841 139.578 908.461 139.578C908.06 139.578 907.734 139.641 907.484 139.766C907.24 139.885 907.06 140.039 906.945 140.227C906.836 140.414 906.781 140.612 906.781 140.82C906.781 140.977 906.807 141.117 906.859 141.242C906.917 141.362 907.016 141.474 907.156 141.578C907.297 141.677 907.495 141.771 907.75 141.859C908.005 141.948 908.331 142.036 908.727 142.125C909.419 142.281 909.99 142.469 910.438 142.688C910.885 142.906 911.219 143.174 911.438 143.492C911.656 143.81 911.766 144.195 911.766 144.648C911.766 145.018 911.688 145.357 911.531 145.664C911.38 145.971 911.159 146.237 910.867 146.461C910.581 146.68 910.237 146.852 909.836 146.977C909.44 147.096 908.995 147.156 908.5 147.156C907.755 147.156 907.125 147.023 906.609 146.758C906.094 146.492 905.703 146.148 905.438 145.727C905.172 145.305 905.039 144.859 905.039 144.391H906.492C906.513 144.786 906.628 145.102 906.836 145.336C907.044 145.565 907.299 145.729 907.602 145.828C907.904 145.922 908.203 145.969 908.5 145.969C908.896 145.969 909.227 145.917 909.492 145.812C909.763 145.708 909.969 145.565 910.109 145.383C910.25 145.201 910.32 144.992 910.32 144.758Z" fill="white"/>
<g clip-path="url(#clip2_1_9)">
<path d="M834.167 100H796.667C796.206 100 795.833 100.373 795.833 100.833V113.333H797.5V101.667H833.333V147.5C833.341 147.938 833.003 148.305 832.566 148.333C832.494 148.333 832.422 148.327 832.351 148.326C832.203 148.322 832.056 148.318 831.911 148.303C831.898 148.303 831.887 148.303 831.874 148.298C829.152 148.001 827.003 145.853 826.702 143.132C826.702 143.12 826.698 143.107 826.697 143.096C826.676 142.898 826.666 142.699 826.667 142.5V140.833C826.667 140.373 826.293 140 825.833 140H797.5V125H795.833V140H789.167C788.706 140 788.333 140.373 788.333 140.833V142.5C788.338 146.64 791.693 149.995 795.833 150H832.583C833.936 149.964 835.01 148.853 835 147.5V100.833C835 100.373 834.627 100 834.167 100ZM795.833 148.333C792.613 148.33 790.004 145.72 790 142.5V141.667H825V142.5C825.001 142.775 825.017 143.049 825.047 143.322C825.055 143.395 825.069 143.465 825.079 143.537C825.107 143.738 825.14 143.939 825.184 144.137C825.199 144.206 825.218 144.274 825.236 144.343C825.287 144.544 825.344 144.742 825.411 144.937C825.43 144.992 825.45 145.047 825.471 145.103C825.547 145.31 825.632 145.512 825.727 145.711C825.747 145.752 825.765 145.794 825.785 145.832C825.889 146.043 826.004 146.248 826.129 146.447C826.146 146.474 826.161 146.502 826.177 146.531C826.313 146.744 826.46 146.949 826.617 147.147L826.643 147.183C826.825 147.412 827.02 147.629 827.227 147.836C827.406 148.014 827.592 148.18 827.785 148.336L795.833 148.333Z" fill="white"/>
<path d="M812.5 123.333C812.721 123.333 812.933 123.245 813.089 123.089L816.422 119.756C816.748 119.43 816.748 118.903 816.422 118.577L813.089 115.244C812.933 115.088 812.721 115 812.5 115H789.167C786.866 115 785 116.866 785 119.167C785 121.468 786.866 123.333 789.167 123.333H812.5ZM812.285 116.797L814.655 119.167L812.285 121.537L811.692 119.167L812.285 116.797ZM791.667 116.667H810.6L810.183 118.333H793.333V120H810.183L810.6 121.667H791.667V116.667ZM786.667 119.167C786.667 117.786 787.786 116.667 789.167 116.667H790V121.667H789.167C787.786 121.667 786.667 120.547 786.667 119.167Z" fill="white"/>
<path d="M804.167 135.833H829.167C829.627 135.833 830 135.46 830 135V110C830 109.54 829.627 109.167 829.166 109.167C828.945 109.167 828.734 109.255 828.577 109.411L803.577 134.411C803.252 134.736 803.252 135.264 803.578 135.589C803.734 135.745 803.946 135.833 804.167 135.833ZM828.333 112.012V114.167H826.667V115.833H828.333V117.5H826.667V119.167H828.333V120.833H826.667V122.5H828.333V124.167H826.667V125.833H828.333V127.5H826.667V129.167H828.333V130.833H826.667V132.5H828.333V134.167H826.667V132.5H825V134.167H823.333V132.5H821.667V134.167H820V132.5H818.333V134.167H816.667V132.5H815V134.167H813.333V132.5H811.667V134.167H810V132.5H808.333V134.167H806.178L828.333 112.012Z" fill="white"/>
<path d="M816.237 130.833H824.167C824.627 130.833 825 130.46 825 130V122.071C825 121.611 824.627 121.238 824.166 121.238C823.945 121.238 823.734 121.325 823.577 121.482L815.648 129.411C815.323 129.736 815.323 130.264 815.648 130.589C815.805 130.745 816.016 130.833 816.237 130.833ZM823.333 124.083V129.167H818.25L823.333 124.083Z" fill="white"/>
<path d="M823.333 105H806.667V106.667H823.333V105Z" fill="white"/>
<path d="M825.833 108.333H804.167V110H825.833V108.333Z" fill="white"/>
<path d="M804.167 125.833H799.167V127.5H804.167V125.833Z" fill="white"/>
<path d="M802.5 129.167H799.167V130.833H802.5V129.167Z" fill="white"/>
</g>
<path d="M1054.55 116.678H1056.4V118.678H1054.55V122H1052.05V118.678H1045.6L1045.53 117.16L1051.97 107.07H1054.55V116.678ZM1048.15 116.678H1052.05V110.444L1051.87 110.772L1048.15 116.678ZM1067.78 115.714C1067.78 117.861 1067.38 119.481 1066.57 120.575C1065.77 121.662 1064.55 122.205 1062.91 122.205C1061.3 122.205 1060.08 121.675 1059.26 120.616C1058.45 119.549 1058.03 117.974 1058.01 115.889V113.305C1058.01 111.158 1058.41 109.548 1059.21 108.475C1060.02 107.402 1061.25 106.865 1062.89 106.865C1064.53 106.865 1065.74 107.388 1066.54 108.434C1067.35 109.48 1067.76 111.045 1067.78 113.13V115.714ZM1065.29 112.925C1065.29 111.524 1065.1 110.499 1064.72 109.849C1064.34 109.193 1063.73 108.865 1062.89 108.865C1062.08 108.865 1061.48 109.176 1061.1 109.798C1060.72 110.413 1060.51 111.377 1060.49 112.689V116.073C1060.49 117.468 1060.69 118.507 1061.08 119.19C1061.47 119.874 1062.08 120.216 1062.91 120.216C1063.71 120.216 1064.3 119.901 1064.69 119.272C1065.07 118.637 1065.27 117.646 1065.29 116.299V112.925ZM1075.91 113.787H1079.8V116.063H1075.91V120.503H1073.49V116.063H1069.57V113.787H1073.49V109.634H1075.91V113.787Z" fill="white"/>
<path d="M1047.55 140.172V150.25H1046.09V138.547H1047.42L1047.55 140.172ZM1053.24 142.703V142.867C1053.24 143.482 1053.17 144.052 1053.02 144.578C1052.88 145.099 1052.66 145.552 1052.38 145.938C1052.11 146.323 1051.77 146.622 1051.36 146.836C1050.95 147.049 1050.49 147.156 1049.96 147.156C1049.42 147.156 1048.95 147.068 1048.54 146.891C1048.13 146.714 1047.78 146.456 1047.49 146.117C1047.21 145.779 1046.98 145.372 1046.8 144.898C1046.64 144.424 1046.52 143.891 1046.46 143.297V142.422C1046.52 141.797 1046.64 141.237 1046.81 140.742C1046.98 140.247 1047.21 139.826 1047.49 139.477C1047.78 139.122 1048.12 138.854 1048.53 138.672C1048.94 138.484 1049.41 138.391 1049.94 138.391C1050.47 138.391 1050.94 138.495 1051.35 138.703C1051.76 138.906 1052.11 139.198 1052.39 139.578C1052.67 139.958 1052.88 140.414 1053.02 140.945C1053.17 141.471 1053.24 142.057 1053.24 142.703ZM1051.79 142.867V142.703C1051.79 142.281 1051.74 141.885 1051.66 141.516C1051.57 141.141 1051.43 140.812 1051.24 140.531C1051.06 140.245 1050.83 140.021 1050.54 139.859C1050.25 139.693 1049.91 139.609 1049.52 139.609C1049.15 139.609 1048.83 139.672 1048.56 139.797C1048.3 139.922 1048.07 140.091 1047.88 140.305C1047.7 140.513 1047.54 140.753 1047.42 141.023C1047.31 141.289 1047.22 141.565 1047.16 141.852V143.875C1047.27 144.24 1047.41 144.583 1047.6 144.906C1047.79 145.224 1048.04 145.482 1048.35 145.68C1048.66 145.872 1049.06 145.969 1049.53 145.969C1049.92 145.969 1050.26 145.888 1050.54 145.727C1050.83 145.56 1051.06 145.333 1051.24 145.047C1051.43 144.76 1051.57 144.432 1051.66 144.062C1051.74 143.688 1051.79 143.289 1051.79 142.867ZM1056.53 139.875V147H1055.09V138.547H1056.49L1056.53 139.875ZM1059.17 138.5L1059.16 139.844C1059.04 139.818 1058.93 139.802 1058.82 139.797C1058.72 139.786 1058.6 139.781 1058.46 139.781C1058.13 139.781 1057.83 139.833 1057.58 139.938C1057.32 140.042 1057.11 140.188 1056.93 140.375C1056.75 140.562 1056.61 140.786 1056.51 141.047C1056.41 141.302 1056.34 141.583 1056.31 141.891L1055.91 142.125C1055.91 141.615 1055.96 141.135 1056.05 140.688C1056.16 140.24 1056.32 139.844 1056.53 139.5C1056.74 139.151 1057.02 138.88 1057.34 138.688C1057.68 138.49 1058.07 138.391 1058.53 138.391C1058.64 138.391 1058.76 138.404 1058.89 138.43C1059.03 138.451 1059.12 138.474 1059.17 138.5ZM1059.97 142.867V142.688C1059.97 142.078 1060.06 141.513 1060.23 140.992C1060.41 140.466 1060.67 140.01 1061 139.625C1061.33 139.234 1061.74 138.932 1062.21 138.719C1062.68 138.5 1063.22 138.391 1063.8 138.391C1064.4 138.391 1064.93 138.5 1065.41 138.719C1065.89 138.932 1066.29 139.234 1066.62 139.625C1066.96 140.01 1067.22 140.466 1067.4 140.992C1067.58 141.513 1067.66 142.078 1067.66 142.688V142.867C1067.66 143.477 1067.58 144.042 1067.4 144.562C1067.22 145.083 1066.96 145.539 1066.62 145.93C1066.29 146.315 1065.89 146.617 1065.41 146.836C1064.95 147.049 1064.41 147.156 1063.82 147.156C1063.23 147.156 1062.69 147.049 1062.22 146.836C1061.74 146.617 1061.34 146.315 1061 145.93C1060.67 145.539 1060.41 145.083 1060.23 144.562C1060.06 144.042 1059.97 143.477 1059.97 142.867ZM1061.41 142.688V142.867C1061.41 143.289 1061.46 143.688 1061.56 144.062C1061.66 144.432 1061.81 144.76 1062.01 145.047C1062.21 145.333 1062.46 145.56 1062.77 145.727C1063.07 145.888 1063.42 145.969 1063.82 145.969C1064.22 145.969 1064.56 145.888 1064.86 145.727C1065.16 145.56 1065.41 145.333 1065.61 145.047C1065.81 144.76 1065.96 144.432 1066.05 144.062C1066.16 143.688 1066.21 143.289 1066.21 142.867V142.688C1066.21 142.271 1066.16 141.878 1066.05 141.508C1065.96 141.133 1065.8 140.802 1065.6 140.516C1065.4 140.224 1065.15 139.995 1064.85 139.828C1064.55 139.661 1064.21 139.578 1063.8 139.578C1063.41 139.578 1063.06 139.661 1062.76 139.828C1062.46 139.995 1062.21 140.224 1062.01 140.516C1061.81 140.802 1061.66 141.133 1061.56 141.508C1061.46 141.878 1061.41 142.271 1061.41 142.688ZM1069.52 138.547H1070.97V148.008C1070.97 148.523 1070.89 148.961 1070.72 149.32C1070.56 149.68 1070.31 149.951 1069.98 150.133C1069.66 150.32 1069.25 150.414 1068.76 150.414C1068.63 150.414 1068.48 150.401 1068.3 150.375C1068.13 150.349 1067.98 150.318 1067.86 150.281L1067.87 149.117C1067.97 149.138 1068.08 149.154 1068.2 149.164C1068.33 149.18 1068.44 149.188 1068.53 149.188C1068.74 149.188 1068.92 149.148 1069.07 149.07C1069.22 148.992 1069.33 148.867 1069.4 148.695C1069.48 148.523 1069.52 148.294 1069.52 148.008V138.547ZM1069.37 136.305C1069.37 136.07 1069.44 135.872 1069.59 135.711C1069.73 135.549 1069.94 135.469 1070.22 135.469C1070.5 135.469 1070.71 135.549 1070.86 135.711C1071.01 135.872 1071.08 136.07 1071.08 136.305C1071.08 136.529 1071.01 136.721 1070.86 136.883C1070.71 137.039 1070.5 137.117 1070.22 137.117C1069.94 137.117 1069.73 137.039 1069.59 136.883C1069.44 136.721 1069.37 136.529 1069.37 136.305ZM1076.81 147.156C1076.22 147.156 1075.69 147.057 1075.21 146.859C1074.74 146.656 1074.33 146.372 1073.98 146.008C1073.65 145.643 1073.39 145.211 1073.2 144.711C1073.02 144.211 1072.93 143.664 1072.93 143.07V142.742C1072.93 142.055 1073.03 141.443 1073.23 140.906C1073.44 140.365 1073.71 139.906 1074.06 139.531C1074.41 139.156 1074.81 138.872 1075.25 138.68C1075.69 138.487 1076.15 138.391 1076.62 138.391C1077.23 138.391 1077.75 138.495 1078.19 138.703C1078.63 138.911 1078.99 139.203 1079.27 139.578C1079.55 139.948 1079.76 140.385 1079.9 140.891C1080.03 141.391 1080.1 141.938 1080.1 142.531V143.18H1073.79V142H1078.66V141.891C1078.64 141.516 1078.56 141.151 1078.42 140.797C1078.29 140.443 1078.08 140.151 1077.8 139.922C1077.51 139.693 1077.12 139.578 1076.62 139.578C1076.3 139.578 1075.99 139.648 1075.72 139.789C1075.44 139.924 1075.21 140.128 1075.01 140.398C1074.81 140.669 1074.66 141 1074.55 141.391C1074.44 141.781 1074.38 142.232 1074.38 142.742V143.07C1074.38 143.471 1074.44 143.849 1074.55 144.203C1074.66 144.552 1074.83 144.859 1075.04 145.125C1075.26 145.391 1075.52 145.599 1075.83 145.75C1076.14 145.901 1076.49 145.977 1076.89 145.977C1077.4 145.977 1077.83 145.872 1078.19 145.664C1078.54 145.456 1078.85 145.177 1079.12 144.828L1079.99 145.523C1079.81 145.799 1079.58 146.062 1079.3 146.312C1079.02 146.562 1078.67 146.766 1078.26 146.922C1077.85 147.078 1077.37 147.156 1076.81 147.156ZM1085.17 145.969C1085.52 145.969 1085.83 145.898 1086.12 145.758C1086.42 145.617 1086.66 145.424 1086.84 145.18C1087.03 144.93 1087.14 144.646 1087.16 144.328H1088.54C1088.51 144.828 1088.34 145.294 1088.03 145.727C1087.72 146.154 1087.32 146.5 1086.82 146.766C1086.32 147.026 1085.77 147.156 1085.17 147.156C1084.54 147.156 1083.98 147.044 1083.51 146.82C1083.04 146.596 1082.65 146.289 1082.34 145.898C1082.03 145.508 1081.8 145.06 1081.64 144.555C1081.49 144.044 1081.41 143.505 1081.41 142.938V142.609C1081.41 142.042 1081.49 141.505 1081.64 141C1081.8 140.49 1082.03 140.039 1082.34 139.648C1082.65 139.258 1083.04 138.951 1083.51 138.727C1083.98 138.503 1084.54 138.391 1085.17 138.391C1085.83 138.391 1086.41 138.526 1086.91 138.797C1087.4 139.062 1087.79 139.427 1088.07 139.891C1088.36 140.349 1088.51 140.87 1088.54 141.453H1087.16C1087.14 141.104 1087.04 140.789 1086.87 140.508C1086.7 140.227 1086.47 140.003 1086.18 139.836C1085.89 139.664 1085.56 139.578 1085.17 139.578C1084.73 139.578 1084.36 139.667 1084.05 139.844C1083.76 140.016 1083.52 140.25 1083.34 140.547C1083.17 140.839 1083.05 141.164 1082.97 141.523C1082.9 141.878 1082.86 142.24 1082.86 142.609V142.938C1082.86 143.307 1082.9 143.672 1082.97 144.031C1083.04 144.391 1083.16 144.716 1083.34 145.008C1083.51 145.299 1083.75 145.534 1084.05 145.711C1084.35 145.883 1084.72 145.969 1085.17 145.969ZM1093.7 138.547V139.656H1089.13V138.547H1093.7ZM1090.68 136.492H1092.12V144.906C1092.12 145.193 1092.17 145.409 1092.26 145.555C1092.35 145.701 1092.46 145.797 1092.6 145.844C1092.74 145.891 1092.89 145.914 1093.05 145.914C1093.17 145.914 1093.3 145.904 1093.43 145.883C1093.57 145.857 1093.67 145.836 1093.73 145.82L1093.74 147C1093.63 147.036 1093.48 147.07 1093.29 147.102C1093.11 147.138 1092.89 147.156 1092.62 147.156C1092.27 147.156 1091.95 147.086 1091.65 146.945C1091.35 146.805 1091.11 146.57 1090.94 146.242C1090.77 145.909 1090.68 145.461 1090.68 144.898V136.492ZM1100.32 144.758C1100.32 144.549 1100.27 144.357 1100.18 144.18C1100.09 143.997 1099.91 143.833 1099.62 143.688C1099.35 143.536 1098.93 143.406 1098.38 143.297C1097.91 143.198 1097.48 143.081 1097.1 142.945C1096.73 142.81 1096.41 142.646 1096.14 142.453C1095.88 142.26 1095.68 142.034 1095.54 141.773C1095.4 141.513 1095.33 141.208 1095.33 140.859C1095.33 140.526 1095.4 140.211 1095.55 139.914C1095.7 139.617 1095.91 139.354 1096.18 139.125C1096.46 138.896 1096.79 138.716 1097.17 138.586C1097.56 138.456 1097.99 138.391 1098.46 138.391C1099.14 138.391 1099.72 138.51 1100.2 138.75C1100.67 138.99 1101.04 139.31 1101.3 139.711C1101.55 140.107 1101.68 140.547 1101.68 141.031H1100.23C1100.23 140.797 1100.16 140.57 1100.02 140.352C1099.89 140.128 1099.69 139.943 1099.42 139.797C1099.16 139.651 1098.84 139.578 1098.46 139.578C1098.06 139.578 1097.73 139.641 1097.48 139.766C1097.24 139.885 1097.06 140.039 1096.95 140.227C1096.84 140.414 1096.78 140.612 1096.78 140.82C1096.78 140.977 1096.81 141.117 1096.86 141.242C1096.92 141.362 1097.02 141.474 1097.16 141.578C1097.3 141.677 1097.49 141.771 1097.75 141.859C1098.01 141.948 1098.33 142.036 1098.73 142.125C1099.42 142.281 1099.99 142.469 1100.44 142.688C1100.89 142.906 1101.22 143.174 1101.44 143.492C1101.66 143.81 1101.77 144.195 1101.77 144.648C1101.77 145.018 1101.69 145.357 1101.53 145.664C1101.38 145.971 1101.16 146.237 1100.87 146.461C1100.58 146.68 1100.24 146.852 1099.84 146.977C1099.44 147.096 1098.99 147.156 1098.5 147.156C1097.76 147.156 1097.12 147.023 1096.61 146.758C1096.09 146.492 1095.7 146.148 1095.44 145.727C1095.17 145.305 1095.04 144.859 1095.04 144.391H1096.49C1096.51 144.786 1096.63 145.102 1096.84 145.336C1097.04 145.565 1097.3 145.729 1097.6 145.828C1097.9 145.922 1098.2 145.969 1098.5 145.969C1098.9 145.969 1099.23 145.917 1099.49 145.812C1099.76 145.708 1099.97 145.565 1100.11 145.383C1100.25 145.201 1100.32 144.992 1100.32 144.758Z" fill="white"/>
<g clip-path="url(#clip3_1_9)">
<path d="M1024.17 100H986.667C986.206 100 985.833 100.373 985.833 100.833V113.333H987.5V101.667H1023.33V147.5C1023.34 147.938 1023 148.305 1022.57 148.333C1022.49 148.333 1022.42 148.327 1022.35 148.326C1022.2 148.322 1022.06 148.318 1021.91 148.303C1021.9 148.303 1021.89 148.303 1021.87 148.298C1019.15 148.001 1017 145.853 1016.7 143.132C1016.7 143.12 1016.7 143.107 1016.7 143.096C1016.68 142.898 1016.67 142.699 1016.67 142.5V140.833C1016.67 140.373 1016.29 140 1015.83 140H987.5V125H985.833V140H979.167C978.706 140 978.333 140.373 978.333 140.833V142.5C978.338 146.64 981.693 149.995 985.833 150H1022.58C1023.94 149.964 1025.01 148.853 1025 147.5V100.833C1025 100.373 1024.63 100 1024.17 100ZM985.833 148.333C982.613 148.33 980.004 145.72 980 142.5V141.667H1015V142.5C1015 142.775 1015.02 143.049 1015.05 143.322C1015.05 143.395 1015.07 143.465 1015.08 143.537C1015.11 143.738 1015.14 143.939 1015.18 144.137C1015.2 144.206 1015.22 144.274 1015.24 144.343C1015.29 144.544 1015.34 144.742 1015.41 144.937C1015.43 144.992 1015.45 145.047 1015.47 145.103C1015.55 145.31 1015.63 145.512 1015.73 145.711C1015.75 145.752 1015.76 145.794 1015.78 145.832C1015.89 146.043 1016 146.248 1016.13 146.447C1016.15 146.474 1016.16 146.502 1016.18 146.531C1016.31 146.744 1016.46 146.949 1016.62 147.147L1016.64 147.183C1016.83 147.412 1017.02 147.629 1017.23 147.836C1017.41 148.014 1017.59 148.18 1017.78 148.336L985.833 148.333Z" fill="white"/>
<path d="M1002.5 123.333C1002.72 123.333 1002.93 123.245 1003.09 123.089L1006.42 119.756C1006.75 119.43 1006.75 118.903 1006.42 118.577L1003.09 115.244C1002.93 115.088 1002.72 115 1002.5 115H979.167C976.866 115 975 116.866 975 119.167C975 121.468 976.866 123.333 979.167 123.333H1002.5ZM1002.28 116.797L1004.65 119.167L1002.28 121.537L1001.69 119.167L1002.28 116.797ZM981.667 116.667H1000.6L1000.18 118.333H983.333V120H1000.18L1000.6 121.667H981.667V116.667ZM976.667 119.167C976.667 117.786 977.786 116.667 979.167 116.667H980V121.667H979.167C977.786 121.667 976.667 120.547 976.667 119.167Z" fill="white"/>
<path d="M994.167 135.833H1019.17C1019.63 135.833 1020 135.46 1020 135V110C1020 109.54 1019.63 109.167 1019.17 109.167C1018.95 109.167 1018.73 109.255 1018.58 109.411L993.577 134.411C993.252 134.736 993.252 135.264 993.578 135.589C993.734 135.745 993.946 135.833 994.167 135.833ZM1018.33 112.012V114.167H1016.67V115.833H1018.33V117.5H1016.67V119.167H1018.33V120.833H1016.67V122.5H1018.33V124.167H1016.67V125.833H1018.33V127.5H1016.67V129.167H1018.33V130.833H1016.67V132.5H1018.33V134.167H1016.67V132.5H1015V134.167H1013.33V132.5H1011.67V134.167H1010V132.5H1008.33V134.167H1006.67V132.5H1005V134.167H1003.33V132.5H1001.67V134.167H1000V132.5H998.333V134.167H996.178L1018.33 112.012Z" fill="white"/>
<path d="M1006.24 130.833H1014.17C1014.63 130.833 1015 130.46 1015 130V122.071C1015 121.611 1014.63 121.238 1014.17 121.238C1013.95 121.238 1013.73 121.325 1013.58 121.482L1005.65 129.411C1005.32 129.736 1005.32 130.264 1005.65 130.589C1005.8 130.745 1006.02 130.833 1006.24 130.833ZM1013.33 124.083V129.167H1008.25L1013.33 124.083Z" fill="white"/>
<path d="M1013.33 105H996.667V106.667H1013.33V105Z" fill="white"/>
<path d="M1015.83 108.333H994.167V110H1015.83V108.333Z" fill="white"/>
<path d="M994.167 125.833H989.167V127.5H994.167V125.833Z" fill="white"/>
<path d="M992.5 129.167H989.167V130.833H992.5V129.167Z" fill="white"/>
</g>
<path d="M1244.55 116.678H1246.4V118.678H1244.55V122H1242.05V118.678H1235.6L1235.53 117.16L1241.97 107.07H1244.55V116.678ZM1238.15 116.678H1242.05V110.444L1241.87 110.772L1238.15 116.678ZM1257.78 115.714C1257.78 117.861 1257.38 119.481 1256.57 120.575C1255.77 121.662 1254.55 122.205 1252.91 122.205C1251.3 122.205 1250.08 121.675 1249.26 120.616C1248.45 119.549 1248.03 117.974 1248.01 115.889V113.305C1248.01 111.158 1248.41 109.548 1249.21 108.475C1250.02 107.402 1251.25 106.865 1252.89 106.865C1254.53 106.865 1255.74 107.388 1256.54 108.434C1257.35 109.48 1257.76 111.045 1257.78 113.13V115.714ZM1255.29 112.925C1255.29 111.524 1255.1 110.499 1254.72 109.849C1254.34 109.193 1253.73 108.865 1252.89 108.865C1252.08 108.865 1251.48 109.176 1251.1 109.798C1250.72 110.413 1250.51 111.377 1250.49 112.689V116.073C1250.49 117.468 1250.69 118.507 1251.08 119.19C1251.47 119.874 1252.08 120.216 1252.91 120.216C1253.71 120.216 1254.3 119.901 1254.69 119.272C1255.07 118.637 1255.27 117.646 1255.29 116.299V112.925ZM1265.91 113.787H1269.8V116.063H1265.91V120.503H1263.49V116.063H1259.57V113.787H1263.49V109.634H1265.91V113.787Z" fill="white"/>
<path d="M1237.55 140.172V150.25H1236.09V138.547H1237.42L1237.55 140.172ZM1243.24 142.703V142.867C1243.24 143.482 1243.17 144.052 1243.02 144.578C1242.88 145.099 1242.66 145.552 1242.38 145.938C1242.11 146.323 1241.77 146.622 1241.36 146.836C1240.95 147.049 1240.49 147.156 1239.96 147.156C1239.42 147.156 1238.95 147.068 1238.54 146.891C1238.13 146.714 1237.78 146.456 1237.49 146.117C1237.21 145.779 1236.98 145.372 1236.8 144.898C1236.64 144.424 1236.52 143.891 1236.46 143.297V142.422C1236.52 141.797 1236.64 141.237 1236.81 140.742C1236.98 140.247 1237.21 139.826 1237.49 139.477C1237.78 139.122 1238.12 138.854 1238.53 138.672C1238.94 138.484 1239.41 138.391 1239.94 138.391C1240.47 138.391 1240.94 138.495 1241.35 138.703C1241.76 138.906 1242.11 139.198 1242.39 139.578C1242.67 139.958 1242.88 140.414 1243.02 140.945C1243.17 141.471 1243.24 142.057 1243.24 142.703ZM1241.79 142.867V142.703C1241.79 142.281 1241.74 141.885 1241.66 141.516C1241.57 141.141 1241.43 140.812 1241.24 140.531C1241.06 140.245 1240.83 140.021 1240.54 139.859C1240.25 139.693 1239.91 139.609 1239.52 139.609C1239.15 139.609 1238.83 139.672 1238.56 139.797C1238.3 139.922 1238.07 140.091 1237.88 140.305C1237.7 140.513 1237.54 140.753 1237.42 141.023C1237.31 141.289 1237.22 141.565 1237.16 141.852V143.875C1237.27 144.24 1237.41 144.583 1237.6 144.906C1237.79 145.224 1238.04 145.482 1238.35 145.68C1238.66 145.872 1239.06 145.969 1239.53 145.969C1239.92 145.969 1240.26 145.888 1240.54 145.727C1240.83 145.56 1241.06 145.333 1241.24 145.047C1241.43 144.76 1241.57 144.432 1241.66 144.062C1241.74 143.688 1241.79 143.289 1241.79 142.867ZM1246.53 139.875V147H1245.09V138.547H1246.49L1246.53 139.875ZM1249.17 138.5L1249.16 139.844C1249.04 139.818 1248.93 139.802 1248.82 139.797C1248.72 139.786 1248.6 139.781 1248.46 139.781C1248.13 139.781 1247.83 139.833 1247.58 139.938C1247.32 140.042 1247.11 140.188 1246.93 140.375C1246.75 140.562 1246.61 140.786 1246.51 141.047C1246.41 141.302 1246.34 141.583 1246.31 141.891L1245.91 142.125C1245.91 141.615 1245.96 141.135 1246.05 140.688C1246.16 140.24 1246.32 139.844 1246.53 139.5C1246.74 139.151 1247.02 138.88 1247.34 138.688C1247.68 138.49 1248.07 138.391 1248.53 138.391C1248.64 138.391 1248.76 138.404 1248.89 138.43C1249.03 138.451 1249.12 138.474 1249.17 138.5ZM1249.97 142.867V142.688C1249.97 142.078 1250.06 141.513 1250.23 140.992C1250.41 140.466 1250.67 140.01 1251 139.625C1251.33 139.234 1251.74 138.932 1252.21 138.719C1252.68 138.5 1253.22 138.391 1253.8 138.391C1254.4 138.391 1254.93 138.5 1255.41 138.719C1255.89 138.932 1256.29 139.234 1256.62 139.625C1256.96 140.01 1257.22 140.466 1257.4 140.992C1257.58 141.513 1257.66 142.078 1257.66 142.688V142.867C1257.66 143.477 1257.58 144.042 1257.4 144.562C1257.22 145.083 1256.96 145.539 1256.62 145.93C1256.29 146.315 1255.89 146.617 1255.41 146.836C1254.95 147.049 1254.41 147.156 1253.82 147.156C1253.23 147.156 1252.69 147.049 1252.22 146.836C1251.74 146.617 1251.34 146.315 1251 145.93C1250.67 145.539 1250.41 145.083 1250.23 144.562C1250.06 144.042 1249.97 143.477 1249.97 142.867ZM1251.41 142.688V142.867C1251.41 143.289 1251.46 143.688 1251.56 144.062C1251.66 144.432 1251.81 144.76 1252.01 145.047C1252.21 145.333 1252.46 145.56 1252.77 145.727C1253.07 145.888 1253.42 145.969 1253.82 145.969C1254.22 145.969 1254.56 145.888 1254.86 145.727C1255.16 145.56 1255.41 145.333 1255.61 145.047C1255.81 144.76 1255.96 144.432 1256.05 144.062C1256.16 143.688 1256.21 143.289 1256.21 142.867V142.688C1256.21 142.271 1256.16 141.878 1256.05 141.508C1255.96 141.133 1255.8 140.802 1255.6 140.516C1255.4 140.224 1255.15 139.995 1254.85 139.828C1254.55 139.661 1254.21 139.578 1253.8 139.578C1253.41 139.578 1253.06 139.661 1252.76 139.828C1252.46 139.995 1252.21 140.224 1252.01 140.516C1251.81 140.802 1251.66 141.133 1251.56 141.508C1251.46 141.878 1251.41 142.271 1251.41 142.688ZM1259.52 138.547H1260.97V148.008C1260.97 148.523 1260.89 148.961 1260.72 149.32C1260.56 149.68 1260.31 149.951 1259.98 150.133C1259.66 150.32 1259.25 150.414 1258.76 150.414C1258.63 150.414 1258.48 150.401 1258.3 150.375C1258.13 150.349 1257.98 150.318 1257.86 150.281L1257.87 149.117C1257.97 149.138 1258.08 149.154 1258.2 149.164C1258.33 149.18 1258.44 149.188 1258.53 149.188C1258.74 149.188 1258.92 149.148 1259.07 149.07C1259.22 148.992 1259.33 148.867 1259.4 148.695C1259.48 148.523 1259.52 148.294 1259.52 148.008V138.547ZM1259.37 136.305C1259.37 136.07 1259.44 135.872 1259.59 135.711C1259.73 135.549 1259.94 135.469 1260.22 135.469C1260.5 135.469 1260.71 135.549 1260.86 135.711C1261.01 135.872 1261.08 136.07 1261.08 136.305C1261.08 136.529 1261.01 136.721 1260.86 136.883C1260.71 137.039 1260.5 137.117 1260.22 137.117C1259.94 137.117 1259.73 137.039 1259.59 136.883C1259.44 136.721 1259.37 136.529 1259.37 136.305ZM1266.81 147.156C1266.22 147.156 1265.69 147.057 1265.21 146.859C1264.74 146.656 1264.33 146.372 1263.98 146.008C1263.65 145.643 1263.39 145.211 1263.2 144.711C1263.02 144.211 1262.93 143.664 1262.93 143.07V142.742C1262.93 142.055 1263.03 141.443 1263.23 140.906C1263.44 140.365 1263.71 139.906 1264.06 139.531C1264.41 139.156 1264.81 138.872 1265.25 138.68C1265.69 138.487 1266.15 138.391 1266.62 138.391C1267.23 138.391 1267.75 138.495 1268.19 138.703C1268.63 138.911 1268.99 139.203 1269.27 139.578C1269.55 139.948 1269.76 140.385 1269.9 140.891C1270.03 141.391 1270.1 141.938 1270.1 142.531V143.18H1263.79V142H1268.66V141.891C1268.64 141.516 1268.56 141.151 1268.42 140.797C1268.29 140.443 1268.08 140.151 1267.8 139.922C1267.51 139.693 1267.12 139.578 1266.62 139.578C1266.3 139.578 1265.99 139.648 1265.72 139.789C1265.44 139.924 1265.21 140.128 1265.01 140.398C1264.81 140.669 1264.66 141 1264.55 141.391C1264.44 141.781 1264.38 142.232 1264.38 142.742V143.07C1264.38 143.471 1264.44 143.849 1264.55 144.203C1264.66 144.552 1264.83 144.859 1265.04 145.125C1265.26 145.391 1265.52 145.599 1265.83 145.75C1266.14 145.901 1266.49 145.977 1266.89 145.977C1267.4 145.977 1267.83 145.872 1268.19 145.664C1268.54 145.456 1268.85 145.177 1269.12 144.828L1269.99 145.523C1269.81 145.799 1269.58 146.062 1269.3 146.312C1269.02 146.562 1268.67 146.766 1268.26 146.922C1267.85 147.078 1267.37 147.156 1266.81 147.156ZM1275.17 145.969C1275.52 145.969 1275.83 145.898 1276.12 145.758C1276.42 145.617 1276.66 145.424 1276.84 145.18C1277.03 144.93 1277.14 144.646 1277.16 144.328H1278.54C1278.51 144.828 1278.34 145.294 1278.03 145.727C1277.72 146.154 1277.32 146.5 1276.82 146.766C1276.32 147.026 1275.77 147.156 1275.17 147.156C1274.54 147.156 1273.98 147.044 1273.51 146.82C1273.04 146.596 1272.65 146.289 1272.34 145.898C1272.03 145.508 1271.8 145.06 1271.64 144.555C1271.49 144.044 1271.41 143.505 1271.41 142.938V142.609C1271.41 142.042 1271.49 141.505 1271.64 141C1271.8 140.49 1272.03 140.039 1272.34 139.648C1272.65 139.258 1273.04 138.951 1273.51 138.727C1273.98 138.503 1274.54 138.391 1275.17 138.391C1275.83 138.391 1276.41 138.526 1276.91 138.797C1277.4 139.062 1277.79 139.427 1278.07 139.891C1278.36 140.349 1278.51 140.87 1278.54 141.453H1277.16C1277.14 141.104 1277.04 140.789 1276.87 140.508C1276.7 140.227 1276.47 140.003 1276.18 139.836C1275.89 139.664 1275.56 139.578 1275.17 139.578C1274.73 139.578 1274.36 139.667 1274.05 139.844C1273.76 140.016 1273.52 140.25 1273.34 140.547C1273.17 140.839 1273.05 141.164 1272.97 141.523C1272.9 141.878 1272.86 142.24 1272.86 142.609V142.938C1272.86 143.307 1272.9 143.672 1272.97 144.031C1273.04 144.391 1273.16 144.716 1273.34 145.008C1273.51 145.299 1273.75 145.534 1274.05 145.711C1274.35 145.883 1274.72 145.969 1275.17 145.969ZM1283.7 138.547V139.656H1279.13V138.547H1283.7ZM1280.68 136.492H1282.12V144.906C1282.12 145.193 1282.17 145.409 1282.26 145.555C1282.35 145.701 1282.46 145.797 1282.6 145.844C1282.74 145.891 1282.89 145.914 1283.05 145.914C1283.17 145.914 1283.3 145.904 1283.43 145.883C1283.57 145.857 1283.67 145.836 1283.73 145.82L1283.74 147C1283.63 147.036 1283.48 147.07 1283.29 147.102C1283.11 147.138 1282.89 147.156 1282.62 147.156C1282.27 147.156 1281.95 147.086 1281.65 146.945C1281.35 146.805 1281.11 146.57 1280.94 146.242C1280.77 145.909 1280.68 145.461 1280.68 144.898V136.492ZM1290.32 144.758C1290.32 144.549 1290.27 144.357 1290.18 144.18C1290.09 143.997 1289.91 143.833 1289.62 143.688C1289.35 143.536 1288.93 143.406 1288.38 143.297C1287.91 143.198 1287.48 143.081 1287.1 142.945C1286.73 142.81 1286.41 142.646 1286.14 142.453C1285.88 142.26 1285.68 142.034 1285.54 141.773C1285.4 141.513 1285.33 141.208 1285.33 140.859C1285.33 140.526 1285.4 140.211 1285.55 139.914C1285.7 139.617 1285.91 139.354 1286.18 139.125C1286.46 138.896 1286.79 138.716 1287.17 138.586C1287.56 138.456 1287.99 138.391 1288.46 138.391C1289.14 138.391 1289.72 138.51 1290.2 138.75C1290.67 138.99 1291.04 139.31 1291.3 139.711C1291.55 140.107 1291.68 140.547 1291.68 141.031H1290.23C1290.23 140.797 1290.16 140.57 1290.02 140.352C1289.89 140.128 1289.69 139.943 1289.42 139.797C1289.16 139.651 1288.84 139.578 1288.46 139.578C1288.06 139.578 1287.73 139.641 1287.48 139.766C1287.24 139.885 1287.06 140.039 1286.95 140.227C1286.84 140.414 1286.78 140.612 1286.78 140.82C1286.78 140.977 1286.81 141.117 1286.86 141.242C1286.92 141.362 1287.02 141.474 1287.16 141.578C1287.3 141.677 1287.49 141.771 1287.75 141.859C1288.01 141.948 1288.33 142.036 1288.73 142.125C1289.42 142.281 1289.99 142.469 1290.44 142.688C1290.89 142.906 1291.22 143.174 1291.44 143.492C1291.66 143.81 1291.77 144.195 1291.77 144.648C1291.77 145.018 1291.69 145.357 1291.53 145.664C1291.38 145.971 1291.16 146.237 1290.87 146.461C1290.58 146.68 1290.24 146.852 1289.84 146.977C1289.44 147.096 1288.99 147.156 1288.5 147.156C1287.76 147.156 1287.12 147.023 1286.61 146.758C1286.09 146.492 1285.7 146.148 1285.44 145.727C1285.17 145.305 1285.04 144.859 1285.04 144.391H1286.49C1286.51 144.786 1286.63 145.102 1286.84 145.336C1287.04 145.565 1287.3 145.729 1287.6 145.828C1287.9 145.922 1288.2 145.969 1288.5 145.969C1288.9 145.969 1289.23 145.917 1289.49 145.812C1289.76 145.708 1289.97 145.565 1290.11 145.383C1290.25 145.201 1290.32 144.992 1290.32 144.758Z" fill="white"/>
<g clip-path="url(#clip4_1_9)">
<path d="M1214.17 100H1176.67C1176.21 100 1175.83 100.373 1175.83 100.833V113.333H1177.5V101.667H1213.33V147.5C1213.34 147.938 1213 148.305 1212.57 148.333C1212.49 148.333 1212.42 148.327 1212.35 148.326C1212.2 148.322 1212.06 148.318 1211.91 148.303C1211.9 148.303 1211.89 148.303 1211.87 148.298C1209.15 148.001 1207 145.853 1206.7 143.132C1206.7 143.12 1206.7 143.107 1206.7 143.096C1206.68 142.898 1206.67 142.699 1206.67 142.5V140.833C1206.67 140.373 1206.29 140 1205.83 140H1177.5V125H1175.83V140H1169.17C1168.71 140 1168.33 140.373 1168.33 140.833V142.5C1168.34 146.64 1171.69 149.995 1175.83 150H1212.58C1213.94 149.964 1215.01 148.853 1215 147.5V100.833C1215 100.373 1214.63 100 1214.17 100ZM1175.83 148.333C1172.61 148.33 1170 145.72 1170 142.5V141.667H1205V142.5C1205 142.775 1205.02 143.049 1205.05 143.322C1205.05 143.395 1205.07 143.465 1205.08 143.537C1205.11 143.738 1205.14 143.939 1205.18 144.137C1205.2 144.206 1205.22 144.274 1205.24 144.343C1205.29 144.544 1205.34 144.742 1205.41 144.937C1205.43 144.992 1205.45 145.047 1205.47 145.103C1205.55 145.31 1205.63 145.512 1205.73 145.711C1205.75 145.752 1205.76 145.794 1205.78 145.832C1205.89 146.043 1206 146.248 1206.13 146.447C1206.15 146.474 1206.16 146.502 1206.18 146.531C1206.31 146.744 1206.46 146.949 1206.62 147.147L1206.64 147.183C1206.83 147.412 1207.02 147.629 1207.23 147.836C1207.41 148.014 1207.59 148.18 1207.78 148.336L1175.83 148.333Z" fill="white"/>
<path d="M1192.5 123.333C1192.72 123.333 1192.93 123.245 1193.09 123.089L1196.42 119.756C1196.75 119.43 1196.75 118.903 1196.42 118.577L1193.09 115.244C1192.93 115.088 1192.72 115 1192.5 115H1169.17C1166.87 115 1165 116.866 1165 119.167C1165 121.468 1166.87 123.333 1169.17 123.333H1192.5ZM1192.28 116.797L1194.65 119.167L1192.28 121.537L1191.69 119.167L1192.28 116.797ZM1171.67 116.667H1190.6L1190.18 118.333H1173.33V120H1190.18L1190.6 121.667H1171.67V116.667ZM1166.67 119.167C1166.67 117.786 1167.79 116.667 1169.17 116.667H1170V121.667H1169.17C1167.79 121.667 1166.67 120.547 1166.67 119.167Z" fill="white"/>
<path d="M1184.17 135.833H1209.17C1209.63 135.833 1210 135.46 1210 135V110C1210 109.54 1209.63 109.167 1209.17 109.167C1208.95 109.167 1208.73 109.255 1208.58 109.411L1183.58 134.411C1183.25 134.736 1183.25 135.264 1183.58 135.589C1183.73 135.745 1183.95 135.833 1184.17 135.833ZM1208.33 112.012V114.167H1206.67V115.833H1208.33V117.5H1206.67V119.167H1208.33V120.833H1206.67V122.5H1208.33V124.167H1206.67V125.833H1208.33V127.5H1206.67V129.167H1208.33V130.833H1206.67V132.5H1208.33V134.167H1206.67V132.5H1205V134.167H1203.33V132.5H1201.67V134.167H1200V132.5H1198.33V134.167H1196.67V132.5H1195V134.167H1193.33V132.5H1191.67V134.167H1190V132.5H1188.33V134.167H1186.18L1208.33 112.012Z" fill="white"/>
<path d="M1196.24 130.833H1204.17C1204.63 130.833 1205 130.46 1205 130V122.071C1205 121.611 1204.63 121.238 1204.17 121.238C1203.95 121.238 1203.73 121.325 1203.58 121.482L1195.65 129.411C1195.32 129.736 1195.32 130.264 1195.65 130.589C1195.8 130.745 1196.02 130.833 1196.24 130.833ZM1203.33 124.083V129.167H1198.25L1203.33 124.083Z" fill="white"/>
<path d="M1203.33 105H1186.67V106.667H1203.33V105Z" fill="white"/>
<path d="M1205.83 108.333H1184.17V110H1205.83V108.333Z" fill="white"/>
<path d="M1184.17 125.833H1179.17V127.5H1184.17V125.833Z" fill="white"/>
<path d="M1182.5 129.167H1179.17V130.833H1182.5V129.167Z" fill="white"/>
</g>
<path d="M1434.55 116.678H1436.4V118.678H1434.55V122H1432.05V118.678H1425.6L1425.53 117.16L1431.97 107.07H1434.55V116.678ZM1428.15 116.678H1432.05V110.444L1431.87 110.772L1428.15 116.678ZM1447.78 115.714C1447.78 117.861 1447.38 119.481 1446.57 120.575C1445.77 121.662 1444.55 122.205 1442.91 122.205C1441.3 122.205 1440.08 121.675 1439.26 120.616C1438.45 119.549 1438.03 117.974 1438.01 115.889V113.305C1438.01 111.158 1438.41 109.548 1439.21 108.475C1440.02 107.402 1441.25 106.865 1442.89 106.865C1444.53 106.865 1445.74 107.388 1446.54 108.434C1447.35 109.48 1447.76 111.045 1447.78 113.13V115.714ZM1445.29 112.925C1445.29 111.524 1445.1 110.499 1444.72 109.849C1444.34 109.193 1443.73 108.865 1442.89 108.865C1442.08 108.865 1441.48 109.176 1441.1 109.798C1440.72 110.413 1440.51 111.377 1440.49 112.689V116.073C1440.49 117.468 1440.69 118.507 1441.08 119.19C1441.47 119.874 1442.08 120.216 1442.91 120.216C1443.71 120.216 1444.3 119.901 1444.69 119.272C1445.07 118.637 1445.27 117.646 1445.29 116.299V112.925ZM1455.91 113.787H1459.8V116.063H1455.91V120.503H1453.49V116.063H1449.57V113.787H1453.49V109.634H1455.91V113.787Z" fill="white"/>
<path d="M1427.55 140.172V150.25H1426.09V138.547H1427.42L1427.55 140.172ZM1433.24 142.703V142.867C1433.24 143.482 1433.17 144.052 1433.02 144.578C1432.88 145.099 1432.66 145.552 1432.38 145.938C1432.11 146.323 1431.77 146.622 1431.36 146.836C1430.95 147.049 1430.49 147.156 1429.96 147.156C1429.42 147.156 1428.95 147.068 1428.54 146.891C1428.13 146.714 1427.78 146.456 1427.49 146.117C1427.21 145.779 1426.98 145.372 1426.8 144.898C1426.64 144.424 1426.52 143.891 1426.46 143.297V142.422C1426.52 141.797 1426.64 141.237 1426.81 140.742C1426.98 140.247 1427.21 139.826 1427.49 139.477C1427.78 139.122 1428.12 138.854 1428.53 138.672C1428.94 138.484 1429.41 138.391 1429.94 138.391C1430.47 138.391 1430.94 138.495 1431.35 138.703C1431.76 138.906 1432.11 139.198 1432.39 139.578C1432.67 139.958 1432.88 140.414 1433.02 140.945C1433.17 141.471 1433.24 142.057 1433.24 142.703ZM1431.79 142.867V142.703C1431.79 142.281 1431.74 141.885 1431.66 141.516C1431.57 141.141 1431.43 140.812 1431.24 140.531C1431.06 140.245 1430.83 140.021 1430.54 139.859C1430.25 139.693 1429.91 139.609 1429.52 139.609C1429.15 139.609 1428.83 139.672 1428.56 139.797C1428.3 139.922 1428.07 140.091 1427.88 140.305C1427.7 140.513 1427.54 140.753 1427.42 141.023C1427.31 141.289 1427.22 141.565 1427.16 141.852V143.875C1427.27 144.24 1427.41 144.583 1427.6 144.906C1427.79 145.224 1428.04 145.482 1428.35 145.68C1428.66 145.872 1429.06 145.969 1429.53 145.969C1429.92 145.969 1430.26 145.888 1430.54 145.727C1430.83 145.56 1431.06 145.333 1431.24 145.047C1431.43 144.76 1431.57 144.432 1431.66 144.062C1431.74 143.688 1431.79 143.289 1431.79 142.867ZM1436.53 139.875V147H1435.09V138.547H1436.49L1436.53 139.875ZM1439.17 138.5L1439.16 139.844C1439.04 139.818 1438.93 139.802 1438.82 139.797C1438.72 139.786 1438.6 139.781 1438.46 139.781C1438.13 139.781 1437.83 139.833 1437.58 139.938C1437.32 140.042 1437.11 140.188 1436.93 140.375C1436.75 140.562 1436.61 140.786 1436.51 141.047C1436.41 141.302 1436.34 141.583 1436.31 141.891L1435.91 142.125C1435.91 141.615 1435.96 141.135 1436.05 140.688C1436.16 140.24 1436.32 139.844 1436.53 139.5C1436.74 139.151 1437.02 138.88 1437.34 138.688C1437.68 138.49 1438.07 138.391 1438.53 138.391C1438.64 138.391 1438.76 138.404 1438.89 138.43C1439.03 138.451 1439.12 138.474 1439.17 138.5ZM1439.97 142.867V142.688C1439.97 142.078 1440.06 141.513 1440.23 140.992C1440.41 140.466 1440.67 140.01 1441 139.625C1441.33 139.234 1441.74 138.932 1442.21 138.719C1442.68 138.5 1443.22 138.391 1443.8 138.391C1444.4 138.391 1444.93 138.5 1445.41 138.719C1445.89 138.932 1446.29 139.234 1446.62 139.625C1446.96 140.01 1447.22 140.466 1447.4 140.992C1447.58 141.513 1447.66 142.078 1447.66 142.688V142.867C1447.66 143.477 1447.58 144.042 1447.4 144.562C1447.22 145.083 1446.96 145.539 1446.62 145.93C1446.29 146.315 1445.89 146.617 1445.41 146.836C1444.95 147.049 1444.41 147.156 1443.82 147.156C1443.23 147.156 1442.69 147.049 1442.22 146.836C1441.74 146.617 1441.34 146.315 1441 145.93C1440.67 145.539 1440.41 145.083 1440.23 144.562C1440.06 144.042 1439.97 143.477 1439.97 142.867ZM1441.41 142.688V142.867C1441.41 143.289 1441.46 143.688 1441.56 144.062C1441.66 144.432 1441.81 144.76 1442.01 145.047C1442.21 145.333 1442.46 145.56 1442.77 145.727C1443.07 145.888 1443.42 145.969 1443.82 145.969C1444.22 145.969 1444.56 145.888 1444.86 145.727C1445.16 145.56 1445.41 145.333 1445.61 145.047C1445.81 144.76 1445.96 144.432 1446.05 144.062C1446.16 143.688 1446.21 143.289 1446.21 142.867V142.688C1446.21 142.271 1446.16 141.878 1446.05 141.508C1445.96 141.133 1445.8 140.802 1445.6 140.516C1445.4 140.224 1445.15 139.995 1444.85 139.828C1444.55 139.661 1444.21 139.578 1443.8 139.578C1443.41 139.578 1443.06 139.661 1442.76 139.828C1442.46 139.995 1442.21 140.224 1442.01 140.516C1441.81 140.802 1441.66 141.133 1441.56 141.508C1441.46 141.878 1441.41 142.271 1441.41 142.688ZM1449.52 138.547H1450.97V148.008C1450.97 148.523 1450.89 148.961 1450.72 149.32C1450.56 149.68 1450.31 149.951 1449.98 150.133C1449.66 150.32 1449.25 150.414 1448.76 150.414C1448.63 150.414 1448.48 150.401 1448.3 150.375C1448.13 150.349 1447.98 150.318 1447.86 150.281L1447.87 149.117C1447.97 149.138 1448.08 149.154 1448.2 149.164C1448.33 149.18 1448.44 149.188 1448.53 149.188C1448.74 149.188 1448.92 149.148 1449.07 149.07C1449.22 148.992 1449.33 148.867 1449.4 148.695C1449.48 148.523 1449.52 148.294 1449.52 148.008V138.547ZM1449.37 136.305C1449.37 136.07 1449.44 135.872 1449.59 135.711C1449.73 135.549 1449.94 135.469 1450.22 135.469C1450.5 135.469 1450.71 135.549 1450.86 135.711C1451.01 135.872 1451.08 136.07 1451.08 136.305C1451.08 136.529 1451.01 136.721 1450.86 136.883C1450.71 137.039 1450.5 137.117 1450.22 137.117C1449.94 137.117 1449.73 137.039 1449.59 136.883C1449.44 136.721 1449.37 136.529 1449.37 136.305ZM1456.81 147.156C1456.22 147.156 1455.69 147.057 1455.21 146.859C1454.74 146.656 1454.33 146.372 1453.98 146.008C1453.65 145.643 1453.39 145.211 1453.2 144.711C1453.02 144.211 1452.93 143.664 1452.93 143.07V142.742C1452.93 142.055 1453.03 141.443 1453.23 140.906C1453.44 140.365 1453.71 139.906 1454.06 139.531C1454.41 139.156 1454.81 138.872 1455.25 138.68C1455.69 138.487 1456.15 138.391 1456.62 138.391C1457.23 138.391 1457.75 138.495 1458.19 138.703C1458.63 138.911 1458.99 139.203 1459.27 139.578C1459.55 139.948 1459.76 140.385 1459.9 140.891C1460.03 141.391 1460.1 141.938 1460.1 142.531V143.18H1453.79V142H1458.66V141.891C1458.64 141.516 1458.56 141.151 1458.42 140.797C1458.29 140.443 1458.08 140.151 1457.8 139.922C1457.51 139.693 1457.12 139.578 1456.62 139.578C1456.3 139.578 1455.99 139.648 1455.72 139.789C1455.44 139.924 1455.21 140.128 1455.01 140.398C1454.81 140.669 1454.66 141 1454.55 141.391C1454.44 141.781 1454.38 142.232 1454.38 142.742V143.07C1454.38 143.471 1454.44 143.849 1454.55 144.203C1454.66 144.552 1454.83 144.859 1455.04 145.125C1455.26 145.391 1455.52 145.599 1455.83 145.75C1456.14 145.901 1456.49 145.977 1456.89 145.977C1457.4 145.977 1457.83 145.872 1458.19 145.664C1458.54 145.456 1458.85 145.177 1459.12 144.828L1459.99 145.523C1459.81 145.799 1459.58 146.062 1459.3 146.312C1459.02 146.562 1458.67 146.766 1458.26 146.922C1457.85 147.078 1457.37 147.156 1456.81 147.156ZM1465.17 145.969C1465.52 145.969 1465.83 145.898 1466.12 145.758C1466.42 145.617 1466.66 145.424 1466.84 145.18C1467.03 144.93 1467.14 144.646 1467.16 144.328H1468.54C1468.51 144.828 1468.34 145.294 1468.03 145.727C1467.72 146.154 1467.32 146.5 1466.82 146.766C1466.32 147.026 1465.77 147.156 1465.17 147.156C1464.54 147.156 1463.98 147.044 1463.51 146.82C1463.04 146.596 1462.65 146.289 1462.34 145.898C1462.03 145.508 1461.8 145.06 1461.64 144.555C1461.49 144.044 1461.41 143.505 1461.41 142.938V142.609C1461.41 142.042 1461.49 141.505 1461.64 141C1461.8 140.49 1462.03 140.039 1462.34 139.648C1462.65 139.258 1463.04 138.951 1463.51 138.727C1463.98 138.503 1464.54 138.391 1465.17 138.391C1465.83 138.391 1466.41 138.526 1466.91 138.797C1467.4 139.062 1467.79 139.427 1468.07 139.891C1468.36 140.349 1468.51 140.87 1468.54 141.453H1467.16C1467.14 141.104 1467.04 140.789 1466.87 140.508C1466.7 140.227 1466.47 140.003 1466.18 139.836C1465.89 139.664 1465.56 139.578 1465.17 139.578C1464.73 139.578 1464.36 139.667 1464.05 139.844C1463.76 140.016 1463.52 140.25 1463.34 140.547C1463.17 140.839 1463.05 141.164 1462.97 141.523C1462.9 141.878 1462.86 142.24 1462.86 142.609V142.938C1462.86 143.307 1462.9 143.672 1462.97 144.031C1463.04 144.391 1463.16 144.716 1463.34 145.008C1463.51 145.299 1463.75 145.534 1464.05 145.711C1464.35 145.883 1464.72 145.969 1465.17 145.969ZM1473.7 138.547V139.656H1469.13V138.547H1473.7ZM1470.68 136.492H1472.12V144.906C1472.12 145.193 1472.17 145.409 1472.26 145.555C1472.35 145.701 1472.46 145.797 1472.6 145.844C1472.74 145.891 1472.89 145.914 1473.05 145.914C1473.17 145.914 1473.3 145.904 1473.43 145.883C1473.57 145.857 1473.67 145.836 1473.73 145.82L1473.74 147C1473.63 147.036 1473.48 147.07 1473.29 147.102C1473.11 147.138 1472.89 147.156 1472.62 147.156C1472.27 147.156 1471.95 147.086 1471.65 146.945C1471.35 146.805 1471.11 146.57 1470.94 146.242C1470.77 145.909 1470.68 145.461 1470.68 144.898V136.492ZM1480.32 144.758C1480.32 144.549 1480.27 144.357 1480.18 144.18C1480.09 143.997 1479.91 143.833 1479.62 143.688C1479.35 143.536 1478.93 143.406 1478.38 143.297C1477.91 143.198 1477.48 143.081 1477.1 142.945C1476.73 142.81 1476.41 142.646 1476.14 142.453C1475.88 142.26 1475.68 142.034 1475.54 141.773C1475.4 141.513 1475.33 141.208 1475.33 140.859C1475.33 140.526 1475.4 140.211 1475.55 139.914C1475.7 139.617 1475.91 139.354 1476.18 139.125C1476.46 138.896 1476.79 138.716 1477.17 138.586C1477.56 138.456 1477.99 138.391 1478.46 138.391C1479.14 138.391 1479.72 138.51 1480.2 138.75C1480.67 138.99 1481.04 139.31 1481.3 139.711C1481.55 140.107 1481.68 140.547 1481.68 141.031H1480.23C1480.23 140.797 1480.16 140.57 1480.02 140.352C1479.89 140.128 1479.69 139.943 1479.42 139.797C1479.16 139.651 1478.84 139.578 1478.46 139.578C1478.06 139.578 1477.73 139.641 1477.48 139.766C1477.24 139.885 1477.06 140.039 1476.95 140.227C1476.84 140.414 1476.78 140.612 1476.78 140.82C1476.78 140.977 1476.81 141.117 1476.86 141.242C1476.92 141.362 1477.02 141.474 1477.16 141.578C1477.3 141.677 1477.49 141.771 1477.75 141.859C1478.01 141.948 1478.33 142.036 1478.73 142.125C1479.42 142.281 1479.99 142.469 1480.44 142.688C1480.89 142.906 1481.22 143.174 1481.44 143.492C1481.66 143.81 1481.77 144.195 1481.77 144.648C1481.77 145.018 1481.69 145.357 1481.53 145.664C1481.38 145.971 1481.16 146.237 1480.87 146.461C1480.58 146.68 1480.24 146.852 1479.84 146.977C1479.44 147.096 1478.99 147.156 1478.5 147.156C1477.76 147.156 1477.12 147.023 1476.61 146.758C1476.09 146.492 1475.7 146.148 1475.44 145.727C1475.17 145.305 1475.04 144.859 1475.04 144.391H1476.49C1476.51 144.786 1476.63 145.102 1476.84 145.336C1477.04 145.565 1477.3 145.729 1477.6 145.828C1477.9 145.922 1478.2 145.969 1478.5 145.969C1478.9 145.969 1479.23 145.917 1479.49 145.812C1479.76 145.708 1479.97 145.565 1480.11 145.383C1480.25 145.201 1480.32 144.992 1480.32 144.758Z" fill="white"/>
<g clip-path="url(#clip5_1_9)">
<path d="M1404.17 100H1366.67C1366.21 100 1365.83 100.373 1365.83 100.833V113.333H1367.5V101.667H1403.33V147.5C1403.34 147.938 1403 148.305 1402.57 148.333C1402.49 148.333 1402.42 148.327 1402.35 148.326C1402.2 148.322 1402.06 148.318 1401.91 148.303C1401.9 148.303 1401.89 148.303 1401.87 148.298C1399.15 148.001 1397 145.853 1396.7 143.132C1396.7 143.12 1396.7 143.107 1396.7 143.096C1396.68 142.898 1396.67 142.699 1396.67 142.5V140.833C1396.67 140.373 1396.29 140 1395.83 140H1367.5V125H1365.83V140H1359.17C1358.71 140 1358.33 140.373 1358.33 140.833V142.5C1358.34 146.64 1361.69 149.995 1365.83 150H1402.58C1403.94 149.964 1405.01 148.853 1405 147.5V100.833C1405 100.373 1404.63 100 1404.17 100ZM1365.83 148.333C1362.61 148.33 1360 145.72 1360 142.5V141.667H1395V142.5C1395 142.775 1395.02 143.049 1395.05 143.322C1395.05 143.395 1395.07 143.465 1395.08 143.537C1395.11 143.738 1395.14 143.939 1395.18 144.137C1395.2 144.206 1395.22 144.274 1395.24 144.343C1395.29 144.544 1395.34 144.742 1395.41 144.937C1395.43 144.992 1395.45 145.047 1395.47 145.103C1395.55 145.31 1395.63 145.512 1395.73 145.711C1395.75 145.752 1395.76 145.794 1395.78 145.832C1395.89 146.043 1396 146.248 1396.13 146.447C1396.15 146.474 1396.16 146.502 1396.18 146.531C1396.31 146.744 1396.46 146.949 1396.62 147.147L1396.64 147.183C1396.83 147.412 1397.02 147.629 1397.23 147.836C1397.41 148.014 1397.59 148.18 1397.78 148.336L1365.83 148.333Z" fill="white"/>
<path d="M1382.5 123.333C1382.72 123.333 1382.93 123.245 1383.09 123.089L1386.42 119.756C1386.75 119.43 1386.75 118.903 1386.42 118.577L1383.09 115.244C1382.93 115.088 1382.72 115 1382.5 115H1359.17C1356.87 115 1355 116.866 1355 119.167C1355 121.468 1356.87 123.333 1359.17 123.333H1382.5ZM1382.28 116.797L1384.65 119.167L1382.28 121.537L1381.69 119.167L1382.28 116.797ZM1361.67 116.667H1380.6L1380.18 118.333H1363.33V120H1380.18L1380.6 121.667H1361.67V116.667ZM1356.67 119.167C1356.67 117.786 1357.79 116.667 1359.17 116.667H1360V121.667H1359.17C1357.79 121.667 1356.67 120.547 1356.67 119.167Z" fill="white"/>
<path d="M1374.17 135.833H1399.17C1399.63 135.833 1400 135.46 1400 135V110C1400 109.54 1399.63 109.167 1399.17 109.167C1398.95 109.167 1398.73 109.255 1398.58 109.411L1373.58 134.411C1373.25 134.736 1373.25 135.264 1373.58 135.589C1373.73 135.745 1373.95 135.833 1374.17 135.833ZM1398.33 112.012V114.167H1396.67V115.833H1398.33V117.5H1396.67V119.167H1398.33V120.833H1396.67V122.5H1398.33V124.167H1396.67V125.833H1398.33V127.5H1396.67V129.167H1398.33V130.833H1396.67V132.5H1398.33V134.167H1396.67V132.5H1395V134.167H1393.33V132.5H1391.67V134.167H1390V132.5H1388.33V134.167H1386.67V132.5H1385V134.167H1383.33V132.5H1381.67V134.167H1380V132.5H1378.33V134.167H1376.18L1398.33 112.012Z" fill="white"/>
<path d="M1386.24 130.833H1394.17C1394.63 130.833 1395 130.46 1395 130V122.071C1395 121.611 1394.63 121.238 1394.17 121.238C1393.95 121.238 1393.73 121.325 1393.58 121.482L1385.65 129.411C1385.32 129.736 1385.32 130.264 1385.65 130.589C1385.8 130.745 1386.02 130.833 1386.24 130.833ZM1393.33 124.083V129.167H1388.25L1393.33 124.083Z" fill="white"/>
<path d="M1393.33 105H1376.67V106.667H1393.33V105Z" fill="white"/>
<path d="M1395.83 108.333H1374.17V110H1395.83V108.333Z" fill="white"/>
<path d="M1374.17 125.833H1369.17V127.5H1374.17V125.833Z" fill="white"/>
<path d="M1372.5 129.167H1369.17V130.833H1372.5V129.167Z" fill="white"/>
</g>
<defs>
<clipPath id="clip0_1_9">
<rect width="50" height="50" fill="white" transform="translate(409 100)"/>
</clipPath>
<clipPath id="clip1_1_9">
<rect width="50" height="50" fill="white" transform="translate(595 100)"/>
</clipPath>
<clipPath id="clip2_1_9">
<rect width="50" height="50" fill="white" transform="translate(785 100)"/>
</clipPath>
<clipPath id="clip3_1_9">
<rect width="50" height="50" fill="white" transform="translate(975 100)"/>
</clipPath>
<clipPath id="clip4_1_9">
<rect width="50" height="50" fill="white" transform="translate(1165 100)"/>
</clipPath>
<clipPath id="clip5_1_9">
<rect width="50" height="50" fill="white" transform="translate(1355 100)"/>
</clipPath>
</defs>
</svg>
